<mxfile host="app.diagrams.net" modified="2023-09-03T05:52:56.282Z" agent="Mozilla/5.0 (Windows NT 10.0; Win64; x64) AppleWebKit/537.36 (KHTML, like Gecko) Chrome/116.0.0.0 Safari/537.36" etag="SDKRSIPm_Bz14JhKYEy1" version="21.7.2" type="github" pages="11">
  <diagram name="Modelado estratégico" id="8NP3AdUZ_DkiwLjYIJoB">
    <mxGraphModel dx="1092" dy="472" grid="1" gridSize="10" guides="1" tooltips="1" connect="1" arrows="1" fold="1" page="1" pageScale="1" pageWidth="850" pageHeight="1100" math="0" shadow="0">
      <root>
        <mxCell id="0" />
        <mxCell id="1" parent="0" />
        <mxCell id="hWaTpJQsUfpoI2xFxVlj-1" value="&lt;b&gt;Big Picture&lt;/b&gt;&lt;br&gt;Sistema de Reservas para Restaurante" style="ellipse;whiteSpace=wrap;html=1;fillColor=#d5e8d4;strokeColor=#82b366;" parent="1" vertex="1">
          <mxGeometry x="90" y="10" width="150" height="100" as="geometry" />
        </mxCell>
        <mxCell id="hWaTpJQsUfpoI2xFxVlj-3" value="Clientes" style="ellipse;whiteSpace=wrap;html=1;fillColor=#d5e8d4;strokeColor=#82b366;" parent="1" vertex="1">
          <mxGeometry x="130" y="130" width="120" height="80" as="geometry" />
        </mxCell>
        <mxCell id="hWaTpJQsUfpoI2xFxVlj-5" value="Notificaciones" style="ellipse;whiteSpace=wrap;html=1;fillColor=#d5e8d4;strokeColor=#82b366;" parent="1" vertex="1">
          <mxGeometry x="410" y="130" width="120" height="80" as="geometry" />
        </mxCell>
        <mxCell id="hWaTpJQsUfpoI2xFxVlj-6" value="Reservas" style="ellipse;whiteSpace=wrap;html=1;fillColor=#d5e8d4;strokeColor=#82b366;" parent="1" vertex="1">
          <mxGeometry x="270" y="130" width="120" height="80" as="geometry" />
        </mxCell>
        <mxCell id="hWaTpJQsUfpoI2xFxVlj-8" value="Mesas" style="ellipse;whiteSpace=wrap;html=1;fillColor=#d5e8d4;strokeColor=#82b366;" parent="1" vertex="1">
          <mxGeometry x="130" y="230" width="120" height="80" as="geometry" />
        </mxCell>
        <mxCell id="hWaTpJQsUfpoI2xFxVlj-11" value="Gestión eficiente de las reservas en un restaurante.&lt;br&gt;1. Los Clientes pueden hacer reservas.&lt;br&gt;2. Los clientes pueden revisar el menú.&lt;br&gt;3.Notificaciones para recordatorios de reserva, confirmaciones y cambios en reservas." style="rounded=1;whiteSpace=wrap;html=1;fillColor=#d5e8d4;strokeColor=#82b366;" parent="1" vertex="1">
          <mxGeometry x="260" y="10" width="500" height="100" as="geometry" />
        </mxCell>
        <mxCell id="hWaTpJQsUfpoI2xFxVlj-13" value="" style="endArrow=none;dashed=1;html=1;dashPattern=1 3;strokeWidth=2;rounded=0;" parent="1" edge="1">
          <mxGeometry width="50" height="50" relative="1" as="geometry">
            <mxPoint x="10" y="320" as="sourcePoint" />
            <mxPoint x="1020" y="320" as="targetPoint" />
            <Array as="points" />
          </mxGeometry>
        </mxCell>
        <mxCell id="m7rZ0P3Zvw4P9yKM0_KO-1" value="Menú" style="ellipse;whiteSpace=wrap;html=1;fillColor=#d5e8d4;strokeColor=#82b366;" parent="1" vertex="1">
          <mxGeometry x="270" y="230" width="120" height="80" as="geometry" />
        </mxCell>
        <mxCell id="m7rZ0P3Zvw4P9yKM0_KO-2" value="Clientes" style="ellipse;whiteSpace=wrap;html=1;fillColor=#d5e8d4;strokeColor=#82b366;" parent="1" vertex="1">
          <mxGeometry x="190" y="520" width="120" height="80" as="geometry" />
        </mxCell>
        <mxCell id="m7rZ0P3Zvw4P9yKM0_KO-4" value="Notificaciones" style="ellipse;whiteSpace=wrap;html=1;fillColor=#d5e8d4;strokeColor=#82b366;" parent="1" vertex="1">
          <mxGeometry x="495" y="340" width="120" height="80" as="geometry" />
        </mxCell>
        <mxCell id="rOrkyUCSA3QIkGicwK71-3" style="edgeStyle=orthogonalEdgeStyle;rounded=0;orthogonalLoop=1;jettySize=auto;html=1;exitX=0;exitY=0.5;exitDx=0;exitDy=0;" edge="1" parent="1" source="rOrkyUCSA3QIkGicwK71-4" target="m7rZ0P3Zvw4P9yKM0_KO-2">
          <mxGeometry relative="1" as="geometry" />
        </mxCell>
        <mxCell id="MYAhjs6G0Liy11eYC0Yg-1" style="edgeStyle=orthogonalEdgeStyle;rounded=0;orthogonalLoop=1;jettySize=auto;html=1;exitX=0.5;exitY=0;exitDx=0;exitDy=0;entryX=0.5;entryY=1;entryDx=0;entryDy=0;" edge="1" parent="1" source="m7rZ0P3Zvw4P9yKM0_KO-5" target="m7rZ0P3Zvw4P9yKM0_KO-4">
          <mxGeometry relative="1" as="geometry" />
        </mxCell>
        <mxCell id="m7rZ0P3Zvw4P9yKM0_KO-5" value="Reservas" style="ellipse;whiteSpace=wrap;html=1;fillColor=#d5e8d4;strokeColor=#82b366;" parent="1" vertex="1">
          <mxGeometry x="495" y="520" width="120" height="80" as="geometry" />
        </mxCell>
        <mxCell id="m7rZ0P3Zvw4P9yKM0_KO-6" value="Mesas" style="ellipse;whiteSpace=wrap;html=1;fillColor=#d5e8d4;strokeColor=#82b366;" parent="1" vertex="1">
          <mxGeometry x="760" y="520" width="120" height="80" as="geometry" />
        </mxCell>
        <mxCell id="m7rZ0P3Zvw4P9yKM0_KO-14" value="Menú" style="ellipse;whiteSpace=wrap;html=1;fillColor=#d5e8d4;strokeColor=#82b366;" parent="1" vertex="1">
          <mxGeometry x="190" y="700" width="120" height="80" as="geometry" />
        </mxCell>
        <mxCell id="m7rZ0P3Zvw4P9yKM0_KO-16" value="Productos" style="ellipse;whiteSpace=wrap;html=1;fillColor=#d5e8d4;strokeColor=#82b366;" parent="1" vertex="1">
          <mxGeometry x="410" y="230" width="120" height="80" as="geometry" />
        </mxCell>
        <mxCell id="rOrkyUCSA3QIkGicwK71-6" style="edgeStyle=orthogonalEdgeStyle;rounded=0;orthogonalLoop=1;jettySize=auto;html=1;exitX=1;exitY=0.5;exitDx=0;exitDy=0;entryX=0;entryY=0.5;entryDx=0;entryDy=0;" edge="1" parent="1" source="YruRjTVlsNwzT2Qx_Qxh-7" target="m7rZ0P3Zvw4P9yKM0_KO-6">
          <mxGeometry relative="1" as="geometry" />
        </mxCell>
        <mxCell id="eRQbjZH4Uv_1GNb9cbW1-2" style="edgeStyle=orthogonalEdgeStyle;rounded=0;orthogonalLoop=1;jettySize=auto;html=1;exitX=1;exitY=1;exitDx=0;exitDy=0;curved=1;entryX=-0.01;entryY=0.43;entryDx=0;entryDy=0;entryPerimeter=0;fillColor=#dae8fc;strokeColor=#6c8ebf;" edge="1" parent="1" source="YruRjTVlsNwzT2Qx_Qxh-7" target="YruRjTVlsNwzT2Qx_Qxh-8">
          <mxGeometry relative="1" as="geometry">
            <Array as="points">
              <mxPoint x="630" y="610" />
              <mxPoint x="938" y="610" />
            </Array>
          </mxGeometry>
        </mxCell>
        <mxCell id="YruRjTVlsNwzT2Qx_Qxh-7" value="A&lt;br&gt;C&lt;br&gt;L" style="rounded=0;whiteSpace=wrap;html=1;" parent="1" vertex="1">
          <mxGeometry x="610" y="530" width="20" height="60" as="geometry" />
        </mxCell>
        <mxCell id="YruRjTVlsNwzT2Qx_Qxh-8" value="ACL porque el dominio de&lt;br&gt;reservas, tomará la informaciónn&lt;br&gt;de las mesas, pero filtrará&lt;br&gt;la información que relamente,&lt;br&gt;necesita, como la capacidad,&lt;br&gt;la disponibilidad." style="text;html=1;align=center;verticalAlign=middle;resizable=0;points=[];autosize=1;strokeColor=#6c8ebf;fillColor=#dae8fc;" parent="1" vertex="1">
          <mxGeometry x="940" y="525" width="200" height="100" as="geometry" />
        </mxCell>
        <mxCell id="YruRjTVlsNwzT2Qx_Qxh-19" value="" style="edgeStyle=orthogonalEdgeStyle;rounded=0;orthogonalLoop=1;jettySize=auto;html=1;curved=1;fillColor=#dae8fc;strokeColor=#6c8ebf;" parent="1" source="YruRjTVlsNwzT2Qx_Qxh-18" edge="1">
          <mxGeometry relative="1" as="geometry">
            <mxPoint x="595" y="475" as="targetPoint" />
          </mxGeometry>
        </mxCell>
        <mxCell id="YruRjTVlsNwzT2Qx_Qxh-18" value=" El dominio de &quot;Notificaciones&quot; &lt;br&gt;podría asociarse con el &lt;br&gt;dominio de &quot;Reservas&quot; &lt;br&gt;para coordinar y comunicar &lt;br&gt;eventos y procesos relacionados &lt;br&gt;con la reserva de mesas en &lt;br&gt;el restaurante" style="text;html=1;align=center;verticalAlign=middle;resizable=0;points=[];autosize=1;strokeColor=#6c8ebf;fillColor=#dae8fc;" parent="1" vertex="1">
          <mxGeometry x="740" y="350" width="200" height="110" as="geometry" />
        </mxCell>
        <mxCell id="YruRjTVlsNwzT2Qx_Qxh-21" value="U" style="text;html=1;align=center;verticalAlign=middle;resizable=0;points=[];autosize=1;strokeColor=none;fillColor=none;" parent="1" vertex="1">
          <mxGeometry x="555" y="416" width="30" height="30" as="geometry" />
        </mxCell>
        <mxCell id="YruRjTVlsNwzT2Qx_Qxh-22" value="D" style="text;html=1;align=center;verticalAlign=middle;resizable=0;points=[];autosize=1;strokeColor=none;fillColor=none;" parent="1" vertex="1">
          <mxGeometry x="555" y="490" width="30" height="30" as="geometry" />
        </mxCell>
        <mxCell id="YruRjTVlsNwzT2Qx_Qxh-23" value="upstream - provider&lt;br&gt;downstream - consumer" style="text;html=1;align=center;verticalAlign=middle;resizable=0;points=[];autosize=1;strokeColor=#b85450;fillColor=#f8cecc;" parent="1" vertex="1">
          <mxGeometry x="800" y="50" width="150" height="40" as="geometry" />
        </mxCell>
        <mxCell id="ImDGkzxSQhhY6YgkqRP4-19" style="edgeStyle=orthogonalEdgeStyle;rounded=0;orthogonalLoop=1;jettySize=auto;html=1;entryX=0.5;entryY=0;entryDx=0;entryDy=0;" parent="1" source="ImDGkzxSQhhY6YgkqRP4-18" target="m7rZ0P3Zvw4P9yKM0_KO-14" edge="1">
          <mxGeometry relative="1" as="geometry" />
        </mxCell>
        <mxCell id="S4ngOtlnA68Y0uTMbrjn-5" style="edgeStyle=orthogonalEdgeStyle;rounded=0;orthogonalLoop=1;jettySize=auto;html=1;exitX=0;exitY=0.5;exitDx=0;exitDy=0;entryX=0.523;entryY=0.99;entryDx=0;entryDy=0;entryPerimeter=0;curved=1;fillColor=#dae8fc;strokeColor=#6c8ebf;" parent="1" source="ImDGkzxSQhhY6YgkqRP4-18" target="S4ngOtlnA68Y0uTMbrjn-4" edge="1">
          <mxGeometry relative="1" as="geometry" />
        </mxCell>
        <mxCell id="ImDGkzxSQhhY6YgkqRP4-18" value="O H S" style="rounded=0;whiteSpace=wrap;html=1;" parent="1" vertex="1">
          <mxGeometry x="215" y="590" width="70" height="20" as="geometry" />
        </mxCell>
        <mxCell id="S4ngOtlnA68Y0uTMbrjn-4" value="Permitie que el dominio Clientes &lt;br&gt;accedan a los datos del dominio &lt;br&gt;Menú sin duplicar información ni &lt;br&gt;comprometer la integridad del &lt;br&gt;dominio Menú." style="text;html=1;align=center;verticalAlign=middle;resizable=0;points=[];autosize=1;strokeColor=#6c8ebf;fillColor=#dae8fc;" parent="1" vertex="1">
          <mxGeometry x="30" y="410" width="200" height="90" as="geometry" />
        </mxCell>
        <mxCell id="ACOcnvce9qrcNdgjU_cD-1" value="Estadisticas" style="ellipse;whiteSpace=wrap;html=1;fillColor=#d5e8d4;strokeColor=#82b366;" parent="1" vertex="1">
          <mxGeometry x="765" y="650" width="120" height="80" as="geometry" />
        </mxCell>
        <mxCell id="ACOcnvce9qrcNdgjU_cD-3" style="edgeStyle=orthogonalEdgeStyle;rounded=0;orthogonalLoop=1;jettySize=auto;html=1;exitX=0;exitY=0.5;exitDx=0;exitDy=0;entryX=0.5;entryY=1;entryDx=0;entryDy=0;" parent="1" source="ACOcnvce9qrcNdgjU_cD-4" target="m7rZ0P3Zvw4P9yKM0_KO-5" edge="1">
          <mxGeometry relative="1" as="geometry">
            <mxPoint x="685" y="690" as="sourcePoint" />
          </mxGeometry>
        </mxCell>
        <mxCell id="ACOcnvce9qrcNdgjU_cD-4" value="O&lt;br&gt;H&lt;br&gt;S" style="rounded=0;whiteSpace=wrap;html=1;" parent="1" vertex="1">
          <mxGeometry x="755" y="660" width="20" height="60" as="geometry" />
        </mxCell>
        <mxCell id="rmbutTVoJBG_-dvNuj5w-1" value="Estadisticas" style="ellipse;whiteSpace=wrap;html=1;fillColor=#d5e8d4;strokeColor=#82b366;" parent="1" vertex="1">
          <mxGeometry x="555" y="130" width="120" height="80" as="geometry" />
        </mxCell>
        <mxCell id="rOrkyUCSA3QIkGicwK71-2" value="Partnership" style="text;html=1;align=center;verticalAlign=middle;resizable=0;points=[];autosize=1;strokeColor=none;fillColor=none;" vertex="1" parent="1">
          <mxGeometry x="505" y="460" width="80" height="30" as="geometry" />
        </mxCell>
        <mxCell id="rOrkyUCSA3QIkGicwK71-4" value="A&lt;br&gt;C&lt;br&gt;L" style="rounded=0;whiteSpace=wrap;html=1;" vertex="1" parent="1">
          <mxGeometry x="479.5" y="530" width="20" height="60" as="geometry" />
        </mxCell>
      </root>
    </mxGraphModel>
  </diagram>
  <diagram id="FAtBKiGZbhK6aIaw_v2O" name="Contexto Clientes (Modelo dominio Clientes)">
    <mxGraphModel dx="1092" dy="472" grid="1" gridSize="10" guides="1" tooltips="1" connect="1" arrows="1" fold="1" page="1" pageScale="1" pageWidth="850" pageHeight="1100" math="0" shadow="0">
      <root>
        <mxCell id="0" />
        <mxCell id="1" parent="0" />
        <mxCell id="KKAyXWQ2u-00gP4td8PB-2" style="edgeStyle=orthogonalEdgeStyle;rounded=0;orthogonalLoop=1;jettySize=auto;html=1;exitX=0;exitY=0.5;exitDx=0;exitDy=0;entryX=1;entryY=0.5;entryDx=0;entryDy=0;endArrow=none;endFill=0;" parent="1" source="G7mjcNuskj6wblFJKC_o-1" target="G7mjcNuskj6wblFJKC_o-2" edge="1">
          <mxGeometry relative="1" as="geometry" />
        </mxCell>
        <mxCell id="G7mjcNuskj6wblFJKC_o-1" value="Cliente" style="rounded=0;whiteSpace=wrap;html=1;fillColor=#d5e8d4;strokeColor=#82b366;" parent="1" vertex="1">
          <mxGeometry x="370" y="250" width="120" height="60" as="geometry" />
        </mxCell>
        <mxCell id="G7mjcNuskj6wblFJKC_o-2" value="TipoIdentificacion" style="rounded=0;whiteSpace=wrap;html=1;" parent="1" vertex="1">
          <mxGeometry x="110" y="250" width="120" height="60" as="geometry" />
        </mxCell>
        <mxCell id="G7mjcNuskj6wblFJKC_o-5" value="Tiene" style="text;html=1;align=center;verticalAlign=middle;resizable=0;points=[];autosize=1;strokeColor=none;fillColor=none;" parent="1" vertex="1">
          <mxGeometry x="280" y="250" width="50" height="30" as="geometry" />
        </mxCell>
        <mxCell id="G7mjcNuskj6wblFJKC_o-6" value="1" style="text;html=1;align=center;verticalAlign=middle;resizable=0;points=[];autosize=1;strokeColor=none;fillColor=none;" parent="1" vertex="1">
          <mxGeometry x="230" y="250" width="30" height="30" as="geometry" />
        </mxCell>
        <mxCell id="G7mjcNuskj6wblFJKC_o-10" value="0...*" style="text;html=1;align=center;verticalAlign=middle;resizable=0;points=[];autosize=1;strokeColor=none;fillColor=none;" parent="1" vertex="1">
          <mxGeometry x="330" y="280" width="40" height="30" as="geometry" />
        </mxCell>
        <mxCell id="sabkzMuw9Pfq_1csWRt8-1" value="NumeroCelular" style="rounded=0;whiteSpace=wrap;html=1;" parent="1" vertex="1">
          <mxGeometry x="610" y="250" width="120" height="60" as="geometry" />
        </mxCell>
        <mxCell id="sabkzMuw9Pfq_1csWRt8-2" value="" style="endArrow=none;html=1;rounded=0;exitX=0;exitY=0.5;exitDx=0;exitDy=0;entryX=1;entryY=0.5;entryDx=0;entryDy=0;" parent="1" source="sabkzMuw9Pfq_1csWRt8-1" target="G7mjcNuskj6wblFJKC_o-1" edge="1">
          <mxGeometry width="50" height="50" relative="1" as="geometry">
            <mxPoint x="540" y="290" as="sourcePoint" />
            <mxPoint x="420" y="210" as="targetPoint" />
          </mxGeometry>
        </mxCell>
        <mxCell id="sabkzMuw9Pfq_1csWRt8-3" value="Tiene" style="text;html=1;align=center;verticalAlign=middle;resizable=0;points=[];autosize=1;strokeColor=none;fillColor=none;" parent="1" vertex="1">
          <mxGeometry x="525" y="278" width="50" height="30" as="geometry" />
        </mxCell>
        <mxCell id="sabkzMuw9Pfq_1csWRt8-4" value="1" style="text;html=1;align=center;verticalAlign=middle;resizable=0;points=[];autosize=1;strokeColor=none;fillColor=none;" parent="1" vertex="1">
          <mxGeometry x="580" y="280" width="30" height="30" as="geometry" />
        </mxCell>
        <mxCell id="sabkzMuw9Pfq_1csWRt8-5" value="" style="endArrow=classic;html=1;rounded=0;entryX=0.99;entryY=1;entryDx=0;entryDy=0;entryPerimeter=0;" parent="1" edge="1">
          <mxGeometry width="50" height="50" relative="1" as="geometry">
            <mxPoint x="529.4" y="307" as="sourcePoint" />
            <mxPoint x="570.6" y="307" as="targetPoint" />
            <Array as="points" />
          </mxGeometry>
        </mxCell>
        <mxCell id="sabkzMuw9Pfq_1csWRt8-7" value="" style="endArrow=classic;html=1;rounded=0;" parent="1" edge="1">
          <mxGeometry width="50" height="50" relative="1" as="geometry">
            <mxPoint x="570" y="254" as="sourcePoint" />
            <mxPoint x="530" y="254" as="targetPoint" />
          </mxGeometry>
        </mxCell>
        <mxCell id="sabkzMuw9Pfq_1csWRt8-9" value="1" style="text;html=1;align=center;verticalAlign=middle;resizable=0;points=[];autosize=1;strokeColor=none;fillColor=none;" parent="1" vertex="1">
          <mxGeometry x="480" y="254" width="30" height="30" as="geometry" />
        </mxCell>
        <mxCell id="aZJXe0OSBD5bMjICRiue-1" style="edgeStyle=orthogonalEdgeStyle;rounded=0;orthogonalLoop=1;jettySize=auto;html=1;exitX=0.5;exitY=0;exitDx=0;exitDy=0;entryX=0.5;entryY=1;entryDx=0;entryDy=0;endArrow=none;endFill=0;" edge="1" parent="1" source="TSvrQIBjzdrH8VJnIriD-1" target="G7mjcNuskj6wblFJKC_o-1">
          <mxGeometry relative="1" as="geometry" />
        </mxCell>
        <mxCell id="TSvrQIBjzdrH8VJnIriD-1" value="ClienteMenu" style="rounded=0;whiteSpace=wrap;html=1;fillColor=#B0E3E6;strokeColor=#0e8088;" parent="1" vertex="1">
          <mxGeometry x="370" y="422" width="120" height="60" as="geometry" />
        </mxCell>
        <mxCell id="6jUo5DUyRnlmQcnR3zpi-5" value="Tiene" style="text;html=1;align=center;verticalAlign=middle;resizable=0;points=[];autosize=1;strokeColor=none;fillColor=none;" parent="1" vertex="1">
          <mxGeometry x="430" y="362" width="50" height="30" as="geometry" />
        </mxCell>
        <mxCell id="6jUo5DUyRnlmQcnR3zpi-6" value="" style="endArrow=classic;html=1;rounded=0;" parent="1" edge="1">
          <mxGeometry width="50" height="50" relative="1" as="geometry">
            <mxPoint x="454" y="334" as="sourcePoint" />
            <mxPoint x="454" y="364" as="targetPoint" />
          </mxGeometry>
        </mxCell>
        <mxCell id="6jUo5DUyRnlmQcnR3zpi-7" value="Pertenece" style="text;html=1;align=center;verticalAlign=middle;resizable=0;points=[];autosize=1;strokeColor=none;fillColor=none;" parent="1" vertex="1">
          <mxGeometry x="345" y="360" width="80" height="30" as="geometry" />
        </mxCell>
        <mxCell id="OOsmjCO8vrh5TJUEpsWS-2" value="0...*" style="text;html=1;align=center;verticalAlign=middle;resizable=0;points=[];autosize=1;strokeColor=none;fillColor=none;" parent="1" vertex="1">
          <mxGeometry x="395" y="310" width="40" height="30" as="geometry" />
        </mxCell>
        <mxCell id="zO4XA6oAX5rf8jxCIWvJ-2" value="1" style="text;html=1;align=center;verticalAlign=middle;resizable=0;points=[];autosize=1;strokeColor=none;fillColor=none;" parent="1" vertex="1">
          <mxGeometry x="430" y="392" width="30" height="30" as="geometry" />
        </mxCell>
        <mxCell id="KKAyXWQ2u-00gP4td8PB-3" value="Pertenece" style="text;html=1;align=center;verticalAlign=middle;resizable=0;points=[];autosize=1;strokeColor=none;fillColor=none;" parent="1" vertex="1">
          <mxGeometry x="510" y="254" width="80" height="30" as="geometry" />
        </mxCell>
        <mxCell id="KKAyXWQ2u-00gP4td8PB-4" value="" style="endArrow=classic;html=1;rounded=0;" parent="1" edge="1">
          <mxGeometry width="50" height="50" relative="1" as="geometry">
            <mxPoint x="320" y="249" as="sourcePoint" />
            <mxPoint x="280" y="249" as="targetPoint" />
          </mxGeometry>
        </mxCell>
        <mxCell id="KKAyXWQ2u-00gP4td8PB-5" value="Pertenece" style="text;html=1;align=center;verticalAlign=middle;resizable=0;points=[];autosize=1;strokeColor=none;fillColor=none;" parent="1" vertex="1">
          <mxGeometry x="260" y="278" width="80" height="30" as="geometry" />
        </mxCell>
        <mxCell id="KKAyXWQ2u-00gP4td8PB-6" value="" style="endArrow=classic;html=1;rounded=0;entryX=0.99;entryY=1;entryDx=0;entryDy=0;entryPerimeter=0;" parent="1" edge="1">
          <mxGeometry width="50" height="50" relative="1" as="geometry">
            <mxPoint x="284.4" y="308" as="sourcePoint" />
            <mxPoint x="325.6" y="308" as="targetPoint" />
            <Array as="points" />
          </mxGeometry>
        </mxCell>
        <mxCell id="RV073OA8fnmPOerBO4jc-1" value="" style="endArrow=classic;html=1;rounded=0;" edge="1" parent="1">
          <mxGeometry width="50" height="50" relative="1" as="geometry">
            <mxPoint x="416.5" y="387" as="sourcePoint" />
            <mxPoint x="416.5" y="347" as="targetPoint" />
          </mxGeometry>
        </mxCell>
      </root>
    </mxGraphModel>
  </diagram>
  <diagram id="9Zw_hFndjnUMTbHONhiw" name="Reservas">
    <mxGraphModel dx="1092" dy="472" grid="1" gridSize="10" guides="1" tooltips="1" connect="1" arrows="1" fold="1" page="1" pageScale="1" pageWidth="850" pageHeight="1100" math="0" shadow="0">
      <root>
        <mxCell id="0" />
        <mxCell id="1" parent="0" />
        <mxCell id="rp-I5v6qvfTp-kMloytI-1" style="edgeStyle=orthogonalEdgeStyle;rounded=0;orthogonalLoop=1;jettySize=auto;html=1;exitX=0.5;exitY=1;exitDx=0;exitDy=0;endArrow=none;endFill=0;" parent="1" source="eT838gf7jAlOYrnll_vc-1" target="6m200d_zuBwX7UkNX6Mk-1" edge="1">
          <mxGeometry relative="1" as="geometry" />
        </mxCell>
        <mxCell id="O5_YL67F04nYymyCUfNW-4" style="edgeStyle=orthogonalEdgeStyle;rounded=0;orthogonalLoop=1;jettySize=auto;html=1;exitX=1;exitY=0.5;exitDx=0;exitDy=0;endArrow=none;endFill=0;" edge="1" parent="1" source="eT838gf7jAlOYrnll_vc-1" target="O5_YL67F04nYymyCUfNW-1">
          <mxGeometry relative="1" as="geometry" />
        </mxCell>
        <mxCell id="eT838gf7jAlOYrnll_vc-1" value="Reserva" style="rounded=0;whiteSpace=wrap;html=1;" parent="1" vertex="1">
          <mxGeometry x="130" y="290" width="120" height="60" as="geometry" />
        </mxCell>
        <mxCell id="mVFb1XHzFAkL0j3B8YzQ-1" value="NotificacionReserva" style="rounded=0;whiteSpace=wrap;html=1;fillColor=#e1d5e7;strokeColor=#9673a6;" parent="1" vertex="1">
          <mxGeometry x="130" y="120" width="120" height="60" as="geometry" />
        </mxCell>
        <mxCell id="mVFb1XHzFAkL0j3B8YzQ-2" value="" style="endArrow=none;html=1;rounded=0;entryX=0.5;entryY=1;entryDx=0;entryDy=0;exitX=0.5;exitY=0;exitDx=0;exitDy=0;" parent="1" source="eT838gf7jAlOYrnll_vc-1" target="mVFb1XHzFAkL0j3B8YzQ-1" edge="1">
          <mxGeometry width="50" height="50" relative="1" as="geometry">
            <mxPoint x="170" y="340" as="sourcePoint" />
            <mxPoint x="220" y="290" as="targetPoint" />
          </mxGeometry>
        </mxCell>
        <mxCell id="MoyriIVIyKtEx6mtaPEi-1" value="Tiene" style="text;html=1;align=center;verticalAlign=middle;resizable=0;points=[];autosize=1;strokeColor=none;fillColor=none;" parent="1" vertex="1">
          <mxGeometry x="185" y="250" width="50" height="30" as="geometry" />
        </mxCell>
        <mxCell id="gvmk_7lt4PPUAFCENJBC-1" value="" style="endArrow=classic;html=1;rounded=0;" parent="1" edge="1">
          <mxGeometry width="50" height="50" relative="1" as="geometry">
            <mxPoint x="209.5" y="250" as="sourcePoint" />
            <mxPoint x="209.5" y="220" as="targetPoint" />
          </mxGeometry>
        </mxCell>
        <mxCell id="Z1zBzY4qvzDJe3auwKO8-1" value="1...*" style="text;html=1;align=center;verticalAlign=middle;resizable=0;points=[];autosize=1;strokeColor=none;fillColor=none;" parent="1" vertex="1">
          <mxGeometry x="200" y="180" width="40" height="30" as="geometry" />
        </mxCell>
        <mxCell id="EwDIlMMUbZvr1I4xluXB-1" value="Pertenece" style="text;html=1;align=center;verticalAlign=middle;resizable=0;points=[];autosize=1;strokeColor=none;fillColor=none;" parent="1" vertex="1">
          <mxGeometry x="120" y="230" width="80" height="30" as="geometry" />
        </mxCell>
        <mxCell id="EwDIlMMUbZvr1I4xluXB-2" value="" style="endArrow=classic;html=1;rounded=0;" parent="1" edge="1">
          <mxGeometry width="50" height="50" relative="1" as="geometry">
            <mxPoint x="174" y="200" as="sourcePoint" />
            <mxPoint x="174" y="230" as="targetPoint" />
          </mxGeometry>
        </mxCell>
        <mxCell id="EwDIlMMUbZvr1I4xluXB-3" value="1" style="text;html=1;align=center;verticalAlign=middle;resizable=0;points=[];autosize=1;strokeColor=none;fillColor=none;" parent="1" vertex="1">
          <mxGeometry x="155" y="260" width="30" height="30" as="geometry" />
        </mxCell>
        <mxCell id="3xA_H6ruORnaUOIruGVV-1" value="ReservaMesa" style="rounded=0;whiteSpace=wrap;html=1;fillColor=#dae8fc;strokeColor=#6c8ebf;" parent="1" vertex="1">
          <mxGeometry x="670" y="290" width="120" height="60" as="geometry" />
        </mxCell>
        <mxCell id="u34OieYLbkz6m_wOW7PJ-2" value="Tiene" style="text;html=1;align=center;verticalAlign=middle;resizable=0;points=[];autosize=1;strokeColor=none;fillColor=none;" parent="1" vertex="1">
          <mxGeometry x="565" y="321.5" width="50" height="30" as="geometry" />
        </mxCell>
        <mxCell id="u34OieYLbkz6m_wOW7PJ-3" value="" style="endArrow=classic;html=1;rounded=0;entryX=0;entryY=-0.08;entryDx=0;entryDy=0;entryPerimeter=0;exitX=1.088;exitY=-0.053;exitDx=0;exitDy=0;exitPerimeter=0;" parent="1" edge="1">
          <mxGeometry width="50" height="50" relative="1" as="geometry">
            <mxPoint x="615" y="280.80999999999995" as="sourcePoint" />
            <mxPoint x="560.5999999999999" y="280" as="targetPoint" />
          </mxGeometry>
        </mxCell>
        <mxCell id="u34OieYLbkz6m_wOW7PJ-4" value="1" style="text;html=1;align=center;verticalAlign=middle;resizable=0;points=[];autosize=1;strokeColor=none;fillColor=none;" parent="1" vertex="1">
          <mxGeometry x="520" y="288" width="30" height="30" as="geometry" />
        </mxCell>
        <mxCell id="u34OieYLbkz6m_wOW7PJ-5" value="Pertenece" style="text;html=1;align=center;verticalAlign=middle;resizable=0;points=[];autosize=1;strokeColor=none;fillColor=none;" parent="1" vertex="1">
          <mxGeometry x="550" y="287.99999999999994" width="80" height="30" as="geometry" />
        </mxCell>
        <mxCell id="u34OieYLbkz6m_wOW7PJ-6" value="" style="endArrow=classic;html=1;rounded=0;" parent="1" edge="1">
          <mxGeometry width="50" height="50" relative="1" as="geometry">
            <mxPoint x="567.5" y="354.99999999999994" as="sourcePoint" />
            <mxPoint x="612.5" y="355.4" as="targetPoint" />
          </mxGeometry>
        </mxCell>
        <mxCell id="u34OieYLbkz6m_wOW7PJ-7" value="0...*" style="text;html=1;align=center;verticalAlign=middle;resizable=0;points=[];autosize=1;strokeColor=none;fillColor=none;" parent="1" vertex="1">
          <mxGeometry x="630" y="323.49999999999994" width="40" height="30" as="geometry" />
        </mxCell>
        <mxCell id="6m200d_zuBwX7UkNX6Mk-1" value="InfoCliente" style="rounded=0;whiteSpace=wrap;html=1;fillColor=#d5e8d4;strokeColor=#82b366;" parent="1" vertex="1">
          <mxGeometry x="130" y="450" width="120" height="60" as="geometry" />
        </mxCell>
        <mxCell id="rp-I5v6qvfTp-kMloytI-2" value="pertenece" style="text;html=1;align=center;verticalAlign=middle;resizable=0;points=[];autosize=1;strokeColor=none;fillColor=none;" parent="1" vertex="1">
          <mxGeometry x="120" y="388" width="80" height="30" as="geometry" />
        </mxCell>
        <mxCell id="rp-I5v6qvfTp-kMloytI-4" value="" style="endArrow=classic;html=1;rounded=0;" parent="1" edge="1">
          <mxGeometry width="50" height="50" relative="1" as="geometry">
            <mxPoint x="127" y="388" as="sourcePoint" />
            <mxPoint x="127" y="418" as="targetPoint" />
          </mxGeometry>
        </mxCell>
        <mxCell id="rp-I5v6qvfTp-kMloytI-5" value="está" style="text;html=1;align=center;verticalAlign=middle;resizable=0;points=[];autosize=1;strokeColor=none;fillColor=none;" parent="1" vertex="1">
          <mxGeometry x="185" y="388" width="50" height="30" as="geometry" />
        </mxCell>
        <mxCell id="rp-I5v6qvfTp-kMloytI-6" value="" style="endArrow=classic;html=1;rounded=0;" parent="1" edge="1">
          <mxGeometry width="50" height="50" relative="1" as="geometry">
            <mxPoint x="234" y="418" as="sourcePoint" />
            <mxPoint x="234" y="388" as="targetPoint" />
          </mxGeometry>
        </mxCell>
        <mxCell id="rp-I5v6qvfTp-kMloytI-7" value="1" style="text;html=1;align=center;verticalAlign=middle;resizable=0;points=[];autosize=1;strokeColor=none;fillColor=none;" parent="1" vertex="1">
          <mxGeometry x="165" y="425" width="30" height="30" as="geometry" />
        </mxCell>
        <mxCell id="rp-I5v6qvfTp-kMloytI-8" value="0...*" style="text;html=1;align=center;verticalAlign=middle;resizable=0;points=[];autosize=1;strokeColor=none;fillColor=none;" parent="1" vertex="1">
          <mxGeometry x="186" y="348" width="40" height="30" as="geometry" />
        </mxCell>
        <mxCell id="FgcDfeJKWufStbaHwDjb-1" value="(cliente)" style="text;html=1;align=center;verticalAlign=middle;resizable=0;points=[];autosize=1;strokeColor=none;fillColor=none;" parent="1" vertex="1">
          <mxGeometry x="155" y="510" width="70" height="30" as="geometry" />
        </mxCell>
        <mxCell id="nS0QLuIrPRtse06d8CWp-1" value="(Mesa)" style="text;html=1;align=center;verticalAlign=middle;resizable=0;points=[];autosize=1;strokeColor=none;fillColor=none;" parent="1" vertex="1">
          <mxGeometry x="700" y="353.5" width="60" height="30" as="geometry" />
        </mxCell>
        <mxCell id="FYiGwWde8ouFtMug6YHu-5" style="edgeStyle=orthogonalEdgeStyle;rounded=0;orthogonalLoop=1;jettySize=auto;html=1;exitX=1;exitY=0.5;exitDx=0;exitDy=0;entryX=0;entryY=0.5;entryDx=0;entryDy=0;endArrow=none;endFill=0;" edge="1" parent="1" source="O5_YL67F04nYymyCUfNW-1" target="3xA_H6ruORnaUOIruGVV-1">
          <mxGeometry relative="1" as="geometry" />
        </mxCell>
        <mxCell id="O5_YL67F04nYymyCUfNW-1" value="FechaHora" style="rounded=0;whiteSpace=wrap;html=1;" vertex="1" parent="1">
          <mxGeometry x="400" y="290" width="120" height="60" as="geometry" />
        </mxCell>
        <mxCell id="_GTSvI1DJ_5ZFBdze59W-1" value="" style="endArrow=classic;html=1;rounded=0;entryX=0;entryY=-0.08;entryDx=0;entryDy=0;entryPerimeter=0;exitX=1.088;exitY=-0.053;exitDx=0;exitDy=0;exitPerimeter=0;" edge="1" parent="1">
          <mxGeometry width="50" height="50" relative="1" as="geometry">
            <mxPoint x="350" y="288" as="sourcePoint" />
            <mxPoint x="296" y="288" as="targetPoint" />
          </mxGeometry>
        </mxCell>
        <mxCell id="_GTSvI1DJ_5ZFBdze59W-2" value="tiene" style="text;html=1;align=center;verticalAlign=middle;resizable=0;points=[];autosize=1;strokeColor=none;fillColor=none;" vertex="1" parent="1">
          <mxGeometry x="300" y="323.5" width="50" height="30" as="geometry" />
        </mxCell>
        <mxCell id="FYiGwWde8ouFtMug6YHu-1" value="" style="endArrow=classic;html=1;rounded=0;entryX=0.857;entryY=1.133;entryDx=0;entryDy=0;entryPerimeter=0;" edge="1" parent="1">
          <mxGeometry width="50" height="50" relative="1" as="geometry">
            <mxPoint x="303" y="352.5" as="sourcePoint" />
            <mxPoint x="347" y="352.5" as="targetPoint" />
          </mxGeometry>
        </mxCell>
        <mxCell id="FYiGwWde8ouFtMug6YHu-2" value="1" style="text;html=1;align=center;verticalAlign=middle;resizable=0;points=[];autosize=1;strokeColor=none;fillColor=none;" vertex="1" parent="1">
          <mxGeometry x="370" y="323.5" width="30" height="30" as="geometry" />
        </mxCell>
        <mxCell id="FYiGwWde8ouFtMug6YHu-3" value="pertenece" style="text;html=1;align=center;verticalAlign=middle;resizable=0;points=[];autosize=1;strokeColor=none;fillColor=none;" vertex="1" parent="1">
          <mxGeometry x="285" y="290" width="80" height="30" as="geometry" />
        </mxCell>
        <mxCell id="FYiGwWde8ouFtMug6YHu-4" value="1...*" style="text;html=1;align=center;verticalAlign=middle;resizable=0;points=[];autosize=1;strokeColor=none;fillColor=none;" vertex="1" parent="1">
          <mxGeometry x="250" y="288" width="40" height="30" as="geometry" />
        </mxCell>
        <mxCell id="gDGzDS5rJJ7pQznw2N51-1" value="(Notificacion)" style="text;html=1;align=center;verticalAlign=middle;resizable=0;points=[];autosize=1;strokeColor=none;fillColor=none;" vertex="1" parent="1">
          <mxGeometry x="145" y="90" width="90" height="30" as="geometry" />
        </mxCell>
      </root>
    </mxGraphModel>
  </diagram>
  <diagram id="DCO-mssSepy2mbwkg9fi" name="Menu">
    <mxGraphModel dx="1092" dy="472" grid="1" gridSize="10" guides="1" tooltips="1" connect="1" arrows="1" fold="1" page="1" pageScale="1" pageWidth="850" pageHeight="1100" math="0" shadow="0">
      <root>
        <mxCell id="0" />
        <mxCell id="1" parent="0" />
        <mxCell id="Z4tS4-4CTJGqtoBqMRcC-1" value="ClienteMenu" style="rounded=0;whiteSpace=wrap;html=1;fillColor=#B0E3E6;fontColor=#000000;" parent="1" vertex="1">
          <mxGeometry x="500" y="338" width="120" height="60" as="geometry" />
        </mxCell>
        <mxCell id="-pNq0xSHVZSJhCHoWCk3-1" style="edgeStyle=orthogonalEdgeStyle;rounded=0;orthogonalLoop=1;jettySize=auto;html=1;exitX=0.5;exitY=0;exitDx=0;exitDy=0;entryX=0.5;entryY=1;entryDx=0;entryDy=0;endArrow=none;endFill=0;" parent="1" source="HU4lSBY8ZP7PwjPlez8Z-2" target="Z4tS4-4CTJGqtoBqMRcC-1" edge="1">
          <mxGeometry relative="1" as="geometry" />
        </mxCell>
        <mxCell id="9zOb6eXgUGJ_94OECCER-1" style="edgeStyle=orthogonalEdgeStyle;rounded=0;orthogonalLoop=1;jettySize=auto;html=1;exitX=0;exitY=0.5;exitDx=0;exitDy=0;entryX=1;entryY=0.5;entryDx=0;entryDy=0;" edge="1" parent="1" source="HU4lSBY8ZP7PwjPlez8Z-2" target="REe60eUfnaQQAgwd5LwK-2">
          <mxGeometry relative="1" as="geometry" />
        </mxCell>
        <mxCell id="HU4lSBY8ZP7PwjPlez8Z-2" value="Menu" style="rounded=0;whiteSpace=wrap;html=1;fillColor=#FFCCCC;strokeColor=#FFBFBF;" parent="1" vertex="1">
          <mxGeometry x="500" y="490" width="120" height="60" as="geometry" />
        </mxCell>
        <mxCell id="1l_eswsNuXuYSEPqPFSs-1" value="" style="endArrow=classic;html=1;rounded=0;" parent="1" edge="1">
          <mxGeometry width="50" height="50" relative="1" as="geometry">
            <mxPoint x="510" y="433" as="sourcePoint" />
            <mxPoint x="510" y="470" as="targetPoint" />
          </mxGeometry>
        </mxCell>
        <mxCell id="nA0mS8bZlgXstj8yHHyF-1" value="" style="endArrow=classic;html=1;rounded=0;" parent="1" edge="1">
          <mxGeometry width="50" height="50" relative="1" as="geometry">
            <mxPoint x="570" y="470" as="sourcePoint" />
            <mxPoint x="570" y="430" as="targetPoint" />
          </mxGeometry>
        </mxCell>
        <mxCell id="nA0mS8bZlgXstj8yHHyF-2" value="tiene" style="text;html=1;align=center;verticalAlign=middle;resizable=0;points=[];autosize=1;strokeColor=none;fillColor=none;" parent="1" vertex="1">
          <mxGeometry x="510" y="430" width="50" height="30" as="geometry" />
        </mxCell>
        <mxCell id="-pNq0xSHVZSJhCHoWCk3-2" value="está" style="text;html=1;align=center;verticalAlign=middle;resizable=0;points=[];autosize=1;strokeColor=none;fillColor=none;" parent="1" vertex="1">
          <mxGeometry x="560" y="440" width="50" height="30" as="geometry" />
        </mxCell>
        <mxCell id="-pNq0xSHVZSJhCHoWCk3-3" value="1...*" style="text;html=1;align=center;verticalAlign=middle;resizable=0;points=[];autosize=1;strokeColor=none;fillColor=none;" parent="1" vertex="1">
          <mxGeometry x="520" y="460" width="40" height="30" as="geometry" />
        </mxCell>
        <mxCell id="-pNq0xSHVZSJhCHoWCk3-4" value="1" style="text;html=1;align=center;verticalAlign=middle;resizable=0;points=[];autosize=1;strokeColor=none;fillColor=none;" parent="1" vertex="1">
          <mxGeometry x="560" y="398" width="30" height="30" as="geometry" />
        </mxCell>
        <mxCell id="REe60eUfnaQQAgwd5LwK-1" style="edgeStyle=orthogonalEdgeStyle;rounded=0;orthogonalLoop=1;jettySize=auto;html=1;exitX=0.5;exitY=1;exitDx=0;exitDy=0;entryX=0.5;entryY=0;entryDx=0;entryDy=0;endArrow=none;endFill=0;" parent="1" source="REe60eUfnaQQAgwd5LwK-2" target="REe60eUfnaQQAgwd5LwK-3" edge="1">
          <mxGeometry relative="1" as="geometry" />
        </mxCell>
        <mxCell id="REe60eUfnaQQAgwd5LwK-2" value="Subcategoría" style="rounded=0;whiteSpace=wrap;html=1;" parent="1" vertex="1">
          <mxGeometry x="231" y="490" width="120" height="60" as="geometry" />
        </mxCell>
        <mxCell id="REe60eUfnaQQAgwd5LwK-3" value="Categoría" style="rounded=0;whiteSpace=wrap;html=1;" parent="1" vertex="1">
          <mxGeometry x="231" y="640" width="120" height="60" as="geometry" />
        </mxCell>
        <mxCell id="REe60eUfnaQQAgwd5LwK-4" value="está" style="text;html=1;align=center;verticalAlign=middle;resizable=0;points=[];autosize=1;strokeColor=none;fillColor=none;" parent="1" vertex="1">
          <mxGeometry x="251" y="580" width="50" height="30" as="geometry" />
        </mxCell>
        <mxCell id="REe60eUfnaQQAgwd5LwK-5" value="" style="endArrow=classic;html=1;rounded=0;" parent="1" edge="1">
          <mxGeometry width="50" height="50" relative="1" as="geometry">
            <mxPoint x="255" y="580" as="sourcePoint" />
            <mxPoint x="255" y="610" as="targetPoint" />
          </mxGeometry>
        </mxCell>
        <mxCell id="REe60eUfnaQQAgwd5LwK-6" value="1" style="text;html=1;align=center;verticalAlign=middle;resizable=0;points=[];autosize=1;strokeColor=none;fillColor=none;" parent="1" vertex="1">
          <mxGeometry x="266" y="615" width="30" height="30" as="geometry" />
        </mxCell>
        <mxCell id="REe60eUfnaQQAgwd5LwK-7" value="tiene" style="text;html=1;align=center;verticalAlign=middle;resizable=0;points=[];autosize=1;strokeColor=none;fillColor=none;" parent="1" vertex="1">
          <mxGeometry x="286" y="580" width="50" height="30" as="geometry" />
        </mxCell>
        <mxCell id="REe60eUfnaQQAgwd5LwK-8" value="0...*" style="text;html=1;align=center;verticalAlign=middle;resizable=0;points=[];autosize=1;strokeColor=none;fillColor=none;" parent="1" vertex="1">
          <mxGeometry x="286" y="548" width="40" height="30" as="geometry" />
        </mxCell>
        <mxCell id="REe60eUfnaQQAgwd5LwK-9" value="" style="endArrow=classic;html=1;rounded=0;" parent="1" edge="1">
          <mxGeometry width="50" height="50" relative="1" as="geometry">
            <mxPoint x="336" y="610" as="sourcePoint" />
            <mxPoint x="336" y="580" as="targetPoint" />
          </mxGeometry>
        </mxCell>
        <mxCell id="MwhOZ9hmpQhblKh3k76m-1" value="tiene" style="text;html=1;align=center;verticalAlign=middle;resizable=0;points=[];autosize=1;strokeColor=none;fillColor=none;" vertex="1" parent="1">
          <mxGeometry x="400" y="490" width="50" height="30" as="geometry" />
        </mxCell>
        <mxCell id="nLTXek3BkfgBhTTxBVBo-1" value="" style="endArrow=classic;html=1;rounded=0;" edge="1" parent="1">
          <mxGeometry width="50" height="50" relative="1" as="geometry">
            <mxPoint x="444" y="489" as="sourcePoint" />
            <mxPoint x="404" y="489" as="targetPoint" />
          </mxGeometry>
        </mxCell>
        <mxCell id="nLTXek3BkfgBhTTxBVBo-2" value="1...*" style="text;html=1;align=center;verticalAlign=middle;resizable=0;points=[];autosize=1;strokeColor=none;fillColor=none;" vertex="1" parent="1">
          <mxGeometry x="351" y="490" width="40" height="30" as="geometry" />
        </mxCell>
        <mxCell id="FPcq0EiQndgD5VKPed0M-1" value="está" style="text;html=1;align=center;verticalAlign=middle;resizable=0;points=[];autosize=1;strokeColor=none;fillColor=none;" vertex="1" parent="1">
          <mxGeometry x="400" y="520" width="50" height="30" as="geometry" />
        </mxCell>
        <mxCell id="KMNZPBwtDf3l4Fp0ba1v-1" value="" style="endArrow=classic;html=1;rounded=0;entryX=0.99;entryY=1;entryDx=0;entryDy=0;entryPerimeter=0;" edge="1" parent="1">
          <mxGeometry width="50" height="50" relative="1" as="geometry">
            <mxPoint x="404.4" y="548" as="sourcePoint" />
            <mxPoint x="445.6" y="548" as="targetPoint" />
            <Array as="points" />
          </mxGeometry>
        </mxCell>
        <mxCell id="KMNZPBwtDf3l4Fp0ba1v-2" value="1" style="text;html=1;align=center;verticalAlign=middle;resizable=0;points=[];autosize=1;strokeColor=none;fillColor=none;" vertex="1" parent="1">
          <mxGeometry x="470" y="520" width="30" height="30" as="geometry" />
        </mxCell>
      </root>
    </mxGraphModel>
  </diagram>
  <diagram id="YgDcOScEkmePeAlaYk1z" name="Mesas">
    <mxGraphModel dx="1092" dy="472" grid="1" gridSize="10" guides="1" tooltips="1" connect="1" arrows="1" fold="1" page="1" pageScale="1" pageWidth="850" pageHeight="1100" math="0" shadow="0">
      <root>
        <mxCell id="0" />
        <mxCell id="1" parent="0" />
        <mxCell id="MY-fZswiTPVtNzVggTXc-1" style="edgeStyle=orthogonalEdgeStyle;rounded=0;orthogonalLoop=1;jettySize=auto;html=1;exitX=1;exitY=0.5;exitDx=0;exitDy=0;entryX=0;entryY=0.5;entryDx=0;entryDy=0;endArrow=none;endFill=0;" parent="1" source="S_TM2tbALE1L9GIuarEz-1" target="f2-0l9JAc7GQWig4EVnI-1" edge="1">
          <mxGeometry relative="1" as="geometry" />
        </mxCell>
        <mxCell id="Nu97V-kuUTZNgNK_DWZ7-2" style="edgeStyle=orthogonalEdgeStyle;rounded=0;orthogonalLoop=1;jettySize=auto;html=1;exitX=0.5;exitY=1;exitDx=0;exitDy=0;entryX=0.5;entryY=0;entryDx=0;entryDy=0;endArrow=none;endFill=0;" parent="1" source="S_TM2tbALE1L9GIuarEz-1" target="Nu97V-kuUTZNgNK_DWZ7-1" edge="1">
          <mxGeometry relative="1" as="geometry" />
        </mxCell>
        <mxCell id="S_TM2tbALE1L9GIuarEz-1" value="Mesa" style="rounded=0;whiteSpace=wrap;html=1;fillColor=#dae8fc;strokeColor=#6c8ebf;" parent="1" vertex="1">
          <mxGeometry x="360" y="250" width="120" height="60" as="geometry" />
        </mxCell>
        <mxCell id="S_TM2tbALE1L9GIuarEz-2" value="Estado" style="rounded=0;whiteSpace=wrap;html=1;" parent="1" vertex="1">
          <mxGeometry x="360" y="70" width="120" height="60" as="geometry" />
        </mxCell>
        <mxCell id="S_TM2tbALE1L9GIuarEz-3" value="" style="endArrow=none;html=1;rounded=0;entryX=0.5;entryY=1;entryDx=0;entryDy=0;exitX=0.5;exitY=0;exitDx=0;exitDy=0;" parent="1" source="S_TM2tbALE1L9GIuarEz-1" target="S_TM2tbALE1L9GIuarEz-2" edge="1">
          <mxGeometry width="50" height="50" relative="1" as="geometry">
            <mxPoint x="400" y="300" as="sourcePoint" />
            <mxPoint x="450" y="250" as="targetPoint" />
          </mxGeometry>
        </mxCell>
        <mxCell id="S_TM2tbALE1L9GIuarEz-4" value="Tiene" style="text;html=1;align=center;verticalAlign=middle;resizable=0;points=[];autosize=1;strokeColor=none;fillColor=none;" parent="1" vertex="1">
          <mxGeometry x="420" y="200" width="50" height="30" as="geometry" />
        </mxCell>
        <mxCell id="S_TM2tbALE1L9GIuarEz-5" value="" style="endArrow=classic;html=1;rounded=0;" parent="1" edge="1">
          <mxGeometry width="50" height="50" relative="1" as="geometry">
            <mxPoint x="444.5" y="200" as="sourcePoint" />
            <mxPoint x="444.5" y="160" as="targetPoint" />
          </mxGeometry>
        </mxCell>
        <mxCell id="S_TM2tbALE1L9GIuarEz-6" value="1" style="text;html=1;align=center;verticalAlign=middle;resizable=0;points=[];autosize=1;strokeColor=none;fillColor=none;" parent="1" vertex="1">
          <mxGeometry x="425" y="128" width="30" height="30" as="geometry" />
        </mxCell>
        <mxCell id="S_TM2tbALE1L9GIuarEz-7" value="Pertenece" style="text;html=1;align=center;verticalAlign=middle;resizable=0;points=[];autosize=1;strokeColor=none;fillColor=none;" parent="1" vertex="1">
          <mxGeometry x="340" y="158" width="80" height="30" as="geometry" />
        </mxCell>
        <mxCell id="S_TM2tbALE1L9GIuarEz-8" value="" style="endArrow=classic;html=1;rounded=0;" parent="1" edge="1">
          <mxGeometry width="50" height="50" relative="1" as="geometry">
            <mxPoint x="390" y="183" as="sourcePoint" />
            <mxPoint x="390" y="220" as="targetPoint" />
          </mxGeometry>
        </mxCell>
        <mxCell id="S_TM2tbALE1L9GIuarEz-9" value="0...*" style="text;html=1;align=center;verticalAlign=middle;resizable=0;points=[];autosize=1;strokeColor=none;fillColor=none;" parent="1" vertex="1">
          <mxGeometry x="377" y="225" width="40" height="30" as="geometry" />
        </mxCell>
        <mxCell id="f2-0l9JAc7GQWig4EVnI-1" value="Ubicacion" style="rounded=0;whiteSpace=wrap;html=1;" parent="1" vertex="1">
          <mxGeometry x="630" y="250" width="120" height="60" as="geometry" />
        </mxCell>
        <mxCell id="MY-fZswiTPVtNzVggTXc-2" value="Tiene" style="text;html=1;align=center;verticalAlign=middle;resizable=0;points=[];autosize=1;strokeColor=none;fillColor=none;" parent="1" vertex="1">
          <mxGeometry x="535" y="250" width="50" height="30" as="geometry" />
        </mxCell>
        <mxCell id="MY-fZswiTPVtNzVggTXc-3" value="1" style="text;html=1;align=center;verticalAlign=middle;resizable=0;points=[];autosize=1;strokeColor=none;fillColor=none;" parent="1" vertex="1">
          <mxGeometry x="600" y="250" width="30" height="30" as="geometry" />
        </mxCell>
        <mxCell id="MY-fZswiTPVtNzVggTXc-4" value="Pertenece" style="text;html=1;align=center;verticalAlign=middle;resizable=0;points=[];autosize=1;strokeColor=none;fillColor=none;" parent="1" vertex="1">
          <mxGeometry x="520" y="280" width="80" height="30" as="geometry" />
        </mxCell>
        <mxCell id="MY-fZswiTPVtNzVggTXc-5" value="1...*" style="text;html=1;align=center;verticalAlign=middle;resizable=0;points=[];autosize=1;strokeColor=none;fillColor=none;" parent="1" vertex="1">
          <mxGeometry x="478" y="280" width="40" height="30" as="geometry" />
        </mxCell>
        <mxCell id="JjMHEhswMXtWq5Fr-Kxx-1" value="" style="endArrow=classic;html=1;rounded=0;" parent="1" edge="1">
          <mxGeometry width="50" height="50" relative="1" as="geometry">
            <mxPoint x="535" y="248.99999999999994" as="sourcePoint" />
            <mxPoint x="580" y="249.39999999999998" as="targetPoint" />
          </mxGeometry>
        </mxCell>
        <mxCell id="qjxGkj51Z03bA_DRsbgx-1" value="" style="endArrow=classic;html=1;rounded=0;entryX=0;entryY=-0.08;entryDx=0;entryDy=0;entryPerimeter=0;exitX=1.088;exitY=-0.053;exitDx=0;exitDy=0;exitPerimeter=0;" parent="1" edge="1">
          <mxGeometry width="50" height="50" relative="1" as="geometry">
            <mxPoint x="587.2" y="310.80999999999995" as="sourcePoint" />
            <mxPoint x="532.8" y="310" as="targetPoint" />
          </mxGeometry>
        </mxCell>
        <mxCell id="Nu97V-kuUTZNgNK_DWZ7-1" value="TipoMesa" style="rounded=0;whiteSpace=wrap;html=1;" parent="1" vertex="1">
          <mxGeometry x="360" y="410" width="120" height="60" as="geometry" />
        </mxCell>
        <mxCell id="Nu97V-kuUTZNgNK_DWZ7-3" value="Tiene" style="text;html=1;align=center;verticalAlign=middle;resizable=0;points=[];autosize=1;strokeColor=none;fillColor=none;" parent="1" vertex="1">
          <mxGeometry x="372" y="350" width="50" height="30" as="geometry" />
        </mxCell>
        <mxCell id="Nu97V-kuUTZNgNK_DWZ7-4" value="" style="endArrow=classic;html=1;rounded=0;" parent="1" edge="1">
          <mxGeometry width="50" height="50" relative="1" as="geometry">
            <mxPoint x="378" y="344" as="sourcePoint" />
            <mxPoint x="378" y="381" as="targetPoint" />
          </mxGeometry>
        </mxCell>
        <mxCell id="Nu97V-kuUTZNgNK_DWZ7-6" value="1...*" style="text;html=1;align=center;verticalAlign=middle;resizable=0;points=[];autosize=1;strokeColor=none;fillColor=none;" parent="1" vertex="1">
          <mxGeometry x="384" y="384" width="40" height="30" as="geometry" />
        </mxCell>
        <mxCell id="rDDfuVpClrIvm5HXqyl8-1" value="Pertenece" style="text;html=1;align=center;verticalAlign=middle;resizable=0;points=[];autosize=1;strokeColor=none;fillColor=none;" parent="1" vertex="1">
          <mxGeometry x="417" y="350" width="80" height="30" as="geometry" />
        </mxCell>
        <mxCell id="rDDfuVpClrIvm5HXqyl8-2" value="" style="endArrow=classic;html=1;rounded=0;" parent="1" edge="1">
          <mxGeometry width="50" height="50" relative="1" as="geometry">
            <mxPoint x="490" y="385" as="sourcePoint" />
            <mxPoint x="490" y="345" as="targetPoint" />
          </mxGeometry>
        </mxCell>
      </root>
    </mxGraphModel>
  </diagram>
  <diagram id="usBc9puWech6H9ExS9Rr" name="Estadisticas">
    <mxGraphModel dx="1092" dy="472" grid="1" gridSize="10" guides="1" tooltips="1" connect="1" arrows="1" fold="1" page="1" pageScale="1" pageWidth="850" pageHeight="1100" math="0" shadow="0">
      <root>
        <mxCell id="0" />
        <mxCell id="1" parent="0" />
        <mxCell id="zZIT_quAFqdPsJCu5-VX-3" style="edgeStyle=orthogonalEdgeStyle;rounded=0;orthogonalLoop=1;jettySize=auto;html=1;exitX=1;exitY=0.5;exitDx=0;exitDy=0;entryX=0;entryY=0.5;entryDx=0;entryDy=0;endArrow=none;endFill=0;" parent="1" source="rEhy5C4F7gGYhm7shrdC-9" target="zZIT_quAFqdPsJCu5-VX-1" edge="1">
          <mxGeometry relative="1" as="geometry">
            <mxPoint x="755" y="282" as="sourcePoint" />
          </mxGeometry>
        </mxCell>
        <mxCell id="yi_6tovyQ5_pNDiX6n6w-3" style="edgeStyle=orthogonalEdgeStyle;rounded=0;orthogonalLoop=1;jettySize=auto;html=1;exitX=0.5;exitY=0;exitDx=0;exitDy=0;entryX=0.5;entryY=1;entryDx=0;entryDy=0;endArrow=none;endFill=0;" parent="1" source="SmTK81Z9g6W7byc6A8lP-1" target="zZIT_quAFqdPsJCu5-VX-2" edge="1">
          <mxGeometry relative="1" as="geometry" />
        </mxCell>
        <mxCell id="rEhy5C4F7gGYhm7shrdC-2" style="edgeStyle=orthogonalEdgeStyle;rounded=0;orthogonalLoop=1;jettySize=auto;html=1;exitX=0;exitY=0.5;exitDx=0;exitDy=0;entryX=1;entryY=0.5;entryDx=0;entryDy=0;" edge="1" parent="1" source="SmTK81Z9g6W7byc6A8lP-1" target="rEhy5C4F7gGYhm7shrdC-1">
          <mxGeometry relative="1" as="geometry" />
        </mxCell>
        <mxCell id="rEhy5C4F7gGYhm7shrdC-10" style="edgeStyle=orthogonalEdgeStyle;rounded=0;orthogonalLoop=1;jettySize=auto;html=1;exitX=1;exitY=0.5;exitDx=0;exitDy=0;entryX=0;entryY=0.5;entryDx=0;entryDy=0;endArrow=none;endFill=0;" edge="1" parent="1" source="SmTK81Z9g6W7byc6A8lP-1" target="rEhy5C4F7gGYhm7shrdC-9">
          <mxGeometry relative="1" as="geometry" />
        </mxCell>
        <mxCell id="SmTK81Z9g6W7byc6A8lP-1" value="Estadistica" style="rounded=0;whiteSpace=wrap;html=1;" parent="1" vertex="1">
          <mxGeometry x="360" y="250" width="120" height="60" as="geometry" />
        </mxCell>
        <mxCell id="zZIT_quAFqdPsJCu5-VX-1" value="EstadisticasReservas" style="rounded=0;whiteSpace=wrap;html=1;fillColor=#a20025;strokeColor=#6F0000;fontColor=#ffffff;" parent="1" vertex="1">
          <mxGeometry x="920" y="250" width="120" height="60" as="geometry" />
        </mxCell>
        <mxCell id="zZIT_quAFqdPsJCu5-VX-2" value="TipoEstadistica" style="rounded=0;whiteSpace=wrap;html=1;" parent="1" vertex="1">
          <mxGeometry x="360" y="90" width="120" height="60" as="geometry" />
        </mxCell>
        <mxCell id="zZIT_quAFqdPsJCu5-VX-4" value="tiene" style="text;html=1;align=center;verticalAlign=middle;resizable=0;points=[];autosize=1;strokeColor=none;fillColor=none;" parent="1" vertex="1">
          <mxGeometry x="815" y="286" width="50" height="30" as="geometry" />
        </mxCell>
        <mxCell id="zZIT_quAFqdPsJCu5-VX-5" value="1...*" style="text;html=1;align=center;verticalAlign=middle;resizable=0;points=[];autosize=1;strokeColor=none;fillColor=none;" parent="1" vertex="1">
          <mxGeometry x="880" y="286" width="40" height="30" as="geometry" />
        </mxCell>
        <mxCell id="coOYM8IGMynIfE3eIoCb-1" value="" style="endArrow=classic;html=1;rounded=0;" parent="1" edge="1">
          <mxGeometry width="50" height="50" relative="1" as="geometry">
            <mxPoint x="820" y="316" as="sourcePoint" />
            <mxPoint x="860" y="316" as="targetPoint" />
          </mxGeometry>
        </mxCell>
        <mxCell id="coOYM8IGMynIfE3eIoCb-4" value="está" style="text;html=1;align=center;verticalAlign=middle;resizable=0;points=[];autosize=1;strokeColor=none;fillColor=none;" parent="1" vertex="1">
          <mxGeometry x="815" y="252" width="50" height="30" as="geometry" />
        </mxCell>
        <mxCell id="yi_6tovyQ5_pNDiX6n6w-1" value="" style="endArrow=classic;html=1;rounded=0;entryX=0;entryY=-0.08;entryDx=0;entryDy=0;entryPerimeter=0;" parent="1" edge="1">
          <mxGeometry width="50" height="50" relative="1" as="geometry">
            <mxPoint x="855" y="251" as="sourcePoint" />
            <mxPoint x="814.9999999999999" y="251" as="targetPoint" />
          </mxGeometry>
        </mxCell>
        <mxCell id="yi_6tovyQ5_pNDiX6n6w-2" value="1" style="text;html=1;align=center;verticalAlign=middle;resizable=0;points=[];autosize=1;strokeColor=none;fillColor=none;" parent="1" vertex="1">
          <mxGeometry x="760" y="250" width="30" height="30" as="geometry" />
        </mxCell>
        <mxCell id="fSFTY7Q_U10xrEvyQXbZ-1" value="tiene" style="text;html=1;align=center;verticalAlign=middle;resizable=0;points=[];autosize=1;strokeColor=none;fillColor=none;" parent="1" vertex="1">
          <mxGeometry x="420" y="188" width="50" height="30" as="geometry" />
        </mxCell>
        <mxCell id="L7G408qAF6lBvrHQHEBa-1" value="" style="endArrow=classic;html=1;rounded=0;" parent="1" edge="1">
          <mxGeometry width="50" height="50" relative="1" as="geometry">
            <mxPoint x="470" y="218" as="sourcePoint" />
            <mxPoint x="470" y="188" as="targetPoint" />
          </mxGeometry>
        </mxCell>
        <mxCell id="L7G408qAF6lBvrHQHEBa-2" value="1" style="text;html=1;align=center;verticalAlign=middle;resizable=0;points=[];autosize=1;strokeColor=none;fillColor=none;" parent="1" vertex="1">
          <mxGeometry x="420" y="150" width="30" height="30" as="geometry" />
        </mxCell>
        <mxCell id="L7G408qAF6lBvrHQHEBa-3" value="pertenece" style="text;html=1;align=center;verticalAlign=middle;resizable=0;points=[];autosize=1;strokeColor=none;fillColor=none;" parent="1" vertex="1">
          <mxGeometry x="345" y="188" width="80" height="30" as="geometry" />
        </mxCell>
        <mxCell id="z5J6yAFQrvACUf9fisEs-1" value="" style="endArrow=classic;html=1;rounded=0;" parent="1" edge="1">
          <mxGeometry width="50" height="50" relative="1" as="geometry">
            <mxPoint x="350" y="188" as="sourcePoint" />
            <mxPoint x="350" y="218" as="targetPoint" />
          </mxGeometry>
        </mxCell>
        <mxCell id="z5J6yAFQrvACUf9fisEs-2" value="1...*" style="text;html=1;align=center;verticalAlign=middle;resizable=0;points=[];autosize=1;strokeColor=none;fillColor=none;" parent="1" vertex="1">
          <mxGeometry x="386" y="218" width="40" height="30" as="geometry" />
        </mxCell>
        <mxCell id="rEhy5C4F7gGYhm7shrdC-1" value="Grafico" style="rounded=0;whiteSpace=wrap;html=1;" vertex="1" parent="1">
          <mxGeometry x="80" y="250" width="120" height="60" as="geometry" />
        </mxCell>
        <mxCell id="rEhy5C4F7gGYhm7shrdC-3" value="" style="endArrow=classic;html=1;rounded=0;entryX=0;entryY=-0.08;entryDx=0;entryDy=0;entryPerimeter=0;" edge="1" parent="1">
          <mxGeometry width="50" height="50" relative="1" as="geometry">
            <mxPoint x="300" y="247" as="sourcePoint" />
            <mxPoint x="259.9999999999999" y="247" as="targetPoint" />
          </mxGeometry>
        </mxCell>
        <mxCell id="rEhy5C4F7gGYhm7shrdC-4" value="tiene" style="text;html=1;align=center;verticalAlign=middle;resizable=0;points=[];autosize=1;strokeColor=none;fillColor=none;" vertex="1" parent="1">
          <mxGeometry x="260" y="250" width="50" height="30" as="geometry" />
        </mxCell>
        <mxCell id="rEhy5C4F7gGYhm7shrdC-5" value="0...*" style="text;html=1;align=center;verticalAlign=middle;resizable=0;points=[];autosize=1;strokeColor=none;fillColor=none;" vertex="1" parent="1">
          <mxGeometry x="200" y="248" width="40" height="30" as="geometry" />
        </mxCell>
        <mxCell id="rEhy5C4F7gGYhm7shrdC-6" value="pertenece" style="text;html=1;align=center;verticalAlign=middle;resizable=0;points=[];autosize=1;strokeColor=none;fillColor=none;" vertex="1" parent="1">
          <mxGeometry x="245" y="284" width="80" height="30" as="geometry" />
        </mxCell>
        <mxCell id="rEhy5C4F7gGYhm7shrdC-7" value="" style="endArrow=classic;html=1;rounded=0;" edge="1" parent="1">
          <mxGeometry width="50" height="50" relative="1" as="geometry">
            <mxPoint x="265" y="314" as="sourcePoint" />
            <mxPoint x="305" y="314" as="targetPoint" />
          </mxGeometry>
        </mxCell>
        <mxCell id="rEhy5C4F7gGYhm7shrdC-9" value="Metrica" style="rounded=0;whiteSpace=wrap;html=1;" vertex="1" parent="1">
          <mxGeometry x="640" y="250" width="120" height="60" as="geometry" />
        </mxCell>
        <mxCell id="rEhy5C4F7gGYhm7shrdC-12" value="tiene" style="text;html=1;align=center;verticalAlign=middle;resizable=0;points=[];autosize=1;strokeColor=none;fillColor=none;" vertex="1" parent="1">
          <mxGeometry x="530" y="282" width="50" height="30" as="geometry" />
        </mxCell>
        <mxCell id="rEhy5C4F7gGYhm7shrdC-13" value="" style="endArrow=classic;html=1;rounded=0;" edge="1" parent="1">
          <mxGeometry width="50" height="50" relative="1" as="geometry">
            <mxPoint x="535" y="313" as="sourcePoint" />
            <mxPoint x="575" y="313" as="targetPoint" />
          </mxGeometry>
        </mxCell>
        <mxCell id="rEhy5C4F7gGYhm7shrdC-14" value="1...*" style="text;html=1;align=center;verticalAlign=middle;resizable=0;points=[];autosize=1;strokeColor=none;fillColor=none;" vertex="1" parent="1">
          <mxGeometry x="600" y="280" width="40" height="30" as="geometry" />
        </mxCell>
        <mxCell id="rEhy5C4F7gGYhm7shrdC-15" value="pertenece" style="text;html=1;align=center;verticalAlign=middle;resizable=0;points=[];autosize=1;strokeColor=none;fillColor=none;" vertex="1" parent="1">
          <mxGeometry x="515" y="250" width="80" height="30" as="geometry" />
        </mxCell>
        <mxCell id="rEhy5C4F7gGYhm7shrdC-16" value="" style="endArrow=classic;html=1;rounded=0;entryX=0;entryY=-0.08;entryDx=0;entryDy=0;entryPerimeter=0;" edge="1" parent="1">
          <mxGeometry width="50" height="50" relative="1" as="geometry">
            <mxPoint x="575" y="247" as="sourcePoint" />
            <mxPoint x="534.9999999999999" y="247" as="targetPoint" />
          </mxGeometry>
        </mxCell>
        <mxCell id="rEhy5C4F7gGYhm7shrdC-17" value="1" style="text;html=1;align=center;verticalAlign=middle;resizable=0;points=[];autosize=1;strokeColor=none;fillColor=none;" vertex="1" parent="1">
          <mxGeometry x="480" y="250" width="30" height="30" as="geometry" />
        </mxCell>
      </root>
    </mxGraphModel>
  </diagram>
  <diagram id="xQJbORYGDsfWUUt-iib8" name="Notificaciones">
    <mxGraphModel dx="1092" dy="472" grid="1" gridSize="10" guides="1" tooltips="1" connect="1" arrows="1" fold="1" page="1" pageScale="1" pageWidth="850" pageHeight="1100" math="0" shadow="0">
      <root>
        <mxCell id="0" />
        <mxCell id="1" parent="0" />
        <mxCell id="oeTLDfOJvWVCDX6m-iiT-5" style="edgeStyle=orthogonalEdgeStyle;rounded=0;orthogonalLoop=1;jettySize=auto;html=1;exitX=1;exitY=0.5;exitDx=0;exitDy=0;entryX=0;entryY=0.5;entryDx=0;entryDy=0;endArrow=none;endFill=0;" parent="1" source="KE1cJ9Bi0DxPrOQ9z0NA-1" target="oeTLDfOJvWVCDX6m-iiT-2" edge="1">
          <mxGeometry relative="1" as="geometry" />
        </mxCell>
        <mxCell id="KE1cJ9Bi0DxPrOQ9z0NA-1" value="Notificacion" style="rounded=0;whiteSpace=wrap;html=1;" parent="1" vertex="1">
          <mxGeometry x="240" y="250" width="120" height="60" as="geometry" />
        </mxCell>
        <mxCell id="Rt5XGKtom8MoUf2vOh3J-1" value="TipoNotificacion" style="rounded=0;whiteSpace=wrap;html=1;" parent="1" vertex="1">
          <mxGeometry x="240" y="30" width="120" height="60" as="geometry" />
        </mxCell>
        <mxCell id="wz7hlI-O517tCiJzyLBE-1" value="Tiene" style="text;html=1;align=center;verticalAlign=middle;resizable=0;points=[];autosize=1;strokeColor=none;fillColor=none;" parent="1" vertex="1">
          <mxGeometry x="300" y="180" width="50" height="30" as="geometry" />
        </mxCell>
        <mxCell id="wz7hlI-O517tCiJzyLBE-2" value="" style="endArrow=classic;html=1;rounded=0;" parent="1" edge="1">
          <mxGeometry width="50" height="50" relative="1" as="geometry">
            <mxPoint x="324.5" y="180" as="sourcePoint" />
            <mxPoint x="324.5" y="140" as="targetPoint" />
          </mxGeometry>
        </mxCell>
        <mxCell id="wz7hlI-O517tCiJzyLBE-3" value="Pertenece" style="text;html=1;align=center;verticalAlign=middle;resizable=0;points=[];autosize=1;strokeColor=none;fillColor=none;" parent="1" vertex="1">
          <mxGeometry x="220" y="144" width="80" height="30" as="geometry" />
        </mxCell>
        <mxCell id="wz7hlI-O517tCiJzyLBE-4" value="" style="endArrow=classic;html=1;rounded=0;" parent="1" edge="1">
          <mxGeometry width="50" height="50" relative="1" as="geometry">
            <mxPoint x="270" y="169" as="sourcePoint" />
            <mxPoint x="270" y="206" as="targetPoint" />
          </mxGeometry>
        </mxCell>
        <mxCell id="yLTW0_RuVdyZY2ORNTGn-1" value="" style="endArrow=none;html=1;rounded=0;entryX=0.5;entryY=1;entryDx=0;entryDy=0;exitX=0.5;exitY=0;exitDx=0;exitDy=0;" parent="1" target="Rt5XGKtom8MoUf2vOh3J-1" edge="1">
          <mxGeometry width="50" height="50" relative="1" as="geometry">
            <mxPoint x="300" y="250" as="sourcePoint" />
            <mxPoint x="300" y="130" as="targetPoint" />
          </mxGeometry>
        </mxCell>
        <mxCell id="xbl3LOkxI8hKHmHARxHq-1" value="1...*" style="text;html=1;align=center;verticalAlign=middle;resizable=0;points=[];autosize=1;strokeColor=none;fillColor=none;" parent="1" vertex="1">
          <mxGeometry x="299" y="88" width="40" height="30" as="geometry" />
        </mxCell>
        <mxCell id="xbl3LOkxI8hKHmHARxHq-2" value="1" style="text;html=1;align=center;verticalAlign=middle;resizable=0;points=[];autosize=1;strokeColor=none;fillColor=none;" parent="1" vertex="1">
          <mxGeometry x="275" y="223" width="30" height="30" as="geometry" />
        </mxCell>
        <mxCell id="oeTLDfOJvWVCDX6m-iiT-3" style="edgeStyle=orthogonalEdgeStyle;rounded=0;orthogonalLoop=1;jettySize=auto;html=1;exitX=0.5;exitY=0;exitDx=0;exitDy=0;entryX=0.5;entryY=1;entryDx=0;entryDy=0;endArrow=none;endFill=0;" parent="1" source="oeTLDfOJvWVCDX6m-iiT-1" target="oeTLDfOJvWVCDX6m-iiT-2" edge="1">
          <mxGeometry relative="1" as="geometry" />
        </mxCell>
        <mxCell id="oeTLDfOJvWVCDX6m-iiT-1" value="Reserva" style="rounded=0;whiteSpace=wrap;html=1;" parent="1" vertex="1">
          <mxGeometry x="510" y="420" width="120" height="60" as="geometry" />
        </mxCell>
        <mxCell id="oeTLDfOJvWVCDX6m-iiT-2" value="InformacionReserva" style="rounded=0;whiteSpace=wrap;html=1;fillColor=#e1d5e7;strokeColor=#9673a6;" parent="1" vertex="1">
          <mxGeometry x="510" y="250" width="120" height="60" as="geometry" />
        </mxCell>
        <mxCell id="oeTLDfOJvWVCDX6m-iiT-6" value="tiene" style="text;html=1;align=center;verticalAlign=middle;resizable=0;points=[];autosize=1;strokeColor=none;fillColor=none;" parent="1" vertex="1">
          <mxGeometry x="410" y="281" width="50" height="30" as="geometry" />
        </mxCell>
        <mxCell id="oeTLDfOJvWVCDX6m-iiT-7" value="1...*" style="text;html=1;align=center;verticalAlign=middle;resizable=0;points=[];autosize=1;strokeColor=none;fillColor=none;" parent="1" vertex="1">
          <mxGeometry x="356" y="252" width="40" height="30" as="geometry" />
        </mxCell>
        <mxCell id="oeTLDfOJvWVCDX6m-iiT-8" value="" style="endArrow=classic;html=1;rounded=0;" parent="1" edge="1">
          <mxGeometry width="50" height="50" relative="1" as="geometry">
            <mxPoint x="415" y="307" as="sourcePoint" />
            <mxPoint x="455" y="307" as="targetPoint" />
          </mxGeometry>
        </mxCell>
        <mxCell id="oeTLDfOJvWVCDX6m-iiT-9" value="Pertenece" style="text;html=1;align=center;verticalAlign=middle;resizable=0;points=[];autosize=1;strokeColor=none;fillColor=none;" parent="1" vertex="1">
          <mxGeometry x="390" y="248" width="80" height="30" as="geometry" />
        </mxCell>
        <mxCell id="oeTLDfOJvWVCDX6m-iiT-10" value="" style="endArrow=classic;html=1;rounded=0;entryX=-0.008;entryY=0.053;entryDx=0;entryDy=0;entryPerimeter=0;" parent="1" edge="1">
          <mxGeometry width="50" height="50" relative="1" as="geometry">
            <mxPoint x="455.20000000000005" y="248.40999999999997" as="sourcePoint" />
            <mxPoint x="404.79999999999995" y="248" as="targetPoint" />
          </mxGeometry>
        </mxCell>
        <mxCell id="oeTLDfOJvWVCDX6m-iiT-11" value="1" style="text;html=1;align=center;verticalAlign=middle;resizable=0;points=[];autosize=1;strokeColor=none;fillColor=none;" parent="1" vertex="1">
          <mxGeometry x="480" y="278" width="30" height="30" as="geometry" />
        </mxCell>
        <mxCell id="lGm84OehKxOo34_kbkBr-1" value="Pertenece" style="text;html=1;align=center;verticalAlign=middle;resizable=0;points=[];autosize=1;strokeColor=none;fillColor=none;" parent="1" vertex="1">
          <mxGeometry x="500" y="350" width="80" height="30" as="geometry" />
        </mxCell>
        <mxCell id="lGm84OehKxOo34_kbkBr-2" value="" style="endArrow=classic;html=1;rounded=0;" parent="1" edge="1">
          <mxGeometry width="50" height="50" relative="1" as="geometry">
            <mxPoint x="506" y="340" as="sourcePoint" />
            <mxPoint x="506" y="377" as="targetPoint" />
          </mxGeometry>
        </mxCell>
        <mxCell id="lGm84OehKxOo34_kbkBr-3" value="tiene" style="text;html=1;align=center;verticalAlign=middle;resizable=0;points=[];autosize=1;strokeColor=none;fillColor=none;" parent="1" vertex="1">
          <mxGeometry x="570" y="350" width="50" height="30" as="geometry" />
        </mxCell>
        <mxCell id="lGm84OehKxOo34_kbkBr-4" value="" style="endArrow=classic;html=1;rounded=0;" parent="1" edge="1">
          <mxGeometry width="50" height="50" relative="1" as="geometry">
            <mxPoint x="619" y="375" as="sourcePoint" />
            <mxPoint x="619" y="335" as="targetPoint" />
          </mxGeometry>
        </mxCell>
        <mxCell id="lGm84OehKxOo34_kbkBr-5" value="1" style="text;html=1;align=center;verticalAlign=middle;resizable=0;points=[];autosize=1;strokeColor=none;fillColor=none;" parent="1" vertex="1">
          <mxGeometry x="540" y="390" width="30" height="30" as="geometry" />
        </mxCell>
        <mxCell id="lGm84OehKxOo34_kbkBr-6" value="1" style="text;html=1;align=center;verticalAlign=middle;resizable=0;points=[];autosize=1;strokeColor=none;fillColor=none;" parent="1" vertex="1">
          <mxGeometry x="570" y="307" width="30" height="30" as="geometry" />
        </mxCell>
      </root>
    </mxGraphModel>
  </diagram>
  <diagram id="1iKPRxR1Ob-cyYm6oe52" name="ContextMapping V1">
    <mxGraphModel dx="3884" dy="3144" grid="1" gridSize="10" guides="1" tooltips="1" connect="1" arrows="1" fold="1" page="1" pageScale="1" pageWidth="850" pageHeight="1100" math="0" shadow="0">
      <root>
        <mxCell id="0" />
        <mxCell id="1" parent="0" />
        <mxCell id="720mcYWVK2-KUbojy9Y--1" value="" style="rounded=1;whiteSpace=wrap;html=1;" vertex="1" parent="1">
          <mxGeometry x="-1270" y="-518.72" width="1035" height="351.43" as="geometry" />
        </mxCell>
        <mxCell id="gt6t7nzM5SgBgm5xhnRR-1" value="" style="rounded=1;whiteSpace=wrap;html=1;" parent="1" vertex="1">
          <mxGeometry x="-130" y="-1140" width="730" height="500" as="geometry" />
        </mxCell>
        <mxCell id="kalMrMTIIX3FcG9cjBzM-32" value="" style="rounded=1;whiteSpace=wrap;html=1;" parent="1" vertex="1">
          <mxGeometry x="760" y="27" width="540" height="446" as="geometry" />
        </mxCell>
        <mxCell id="vogboXZ8oOxDKp5UlBk--35" value="" style="rounded=1;whiteSpace=wrap;html=1;" parent="1" vertex="1">
          <mxGeometry x="740" y="-593.72" width="480" height="510" as="geometry" />
        </mxCell>
        <mxCell id="kcRU8K_Wro45fWBDhdfn-37" value="" style="rounded=1;whiteSpace=wrap;html=1;" parent="1" vertex="1">
          <mxGeometry x="-113.5" y="-570" width="717" height="470" as="geometry" />
        </mxCell>
        <mxCell id="kcRU8K_Wro45fWBDhdfn-34" value="" style="rounded=1;whiteSpace=wrap;html=1;" parent="1" vertex="1">
          <mxGeometry x="-90" y="40" width="730" height="420" as="geometry" />
        </mxCell>
        <mxCell id="kcRU8K_Wro45fWBDhdfn-35" value="Clientes" style="text;html=1;align=center;verticalAlign=middle;resizable=0;points=[];autosize=1;strokeColor=none;fillColor=none;fontSize=14;fontStyle=1" parent="1" vertex="1">
          <mxGeometry x="240" y="40" width="80" height="30" as="geometry" />
        </mxCell>
        <mxCell id="kalMrMTIIX3FcG9cjBzM-35" value="Menu" style="text;html=1;align=center;verticalAlign=middle;resizable=0;points=[];autosize=1;strokeColor=none;fillColor=none;fontSize=14;fontStyle=1" parent="1" vertex="1">
          <mxGeometry x="1035" y="33" width="60" height="30" as="geometry" />
        </mxCell>
        <mxCell id="0iZL4kHeMORRc6uXRY2E-35" style="edgeStyle=orthogonalEdgeStyle;rounded=0;orthogonalLoop=1;jettySize=auto;html=1;exitX=0.5;exitY=0;exitDx=0;exitDy=0;entryX=1;entryY=0.5;entryDx=0;entryDy=0;endArrow=none;endFill=0;fillColor=#d5e8d4;strokeColor=#82b366;strokeWidth=10;" parent="1" source="GDxuiQRZNwiL5hh79bfY-2" target="8DekjPvpLVKMl7ppozE_-19" edge="1">
          <mxGeometry relative="1" as="geometry">
            <mxPoint x="280" y="80" as="sourcePoint" />
            <mxPoint x="240" y="-136" as="targetPoint" />
          </mxGeometry>
        </mxCell>
        <mxCell id="HWSu922vNIc9RlCDlfOk-25" style="edgeStyle=orthogonalEdgeStyle;rounded=0;orthogonalLoop=1;jettySize=auto;html=1;exitX=1;exitY=0.5;exitDx=0;exitDy=0;entryX=0;entryY=0.5;entryDx=0;entryDy=0;strokeWidth=10;endArrow=none;endFill=0;fillColor=#dae8fc;strokeColor=#6c8ebf;" parent="1" source="8DekjPvpLVKMl7ppozE_-12" target="HWSu922vNIc9RlCDlfOk-3" edge="1">
          <mxGeometry relative="1" as="geometry">
            <mxPoint x="580" y="-318.5" as="sourcePoint" />
          </mxGeometry>
        </mxCell>
        <mxCell id="0iZL4kHeMORRc6uXRY2E-36" value="Reservas" style="text;html=1;align=center;verticalAlign=middle;resizable=0;points=[];autosize=1;strokeColor=none;fillColor=none;fontSize=14;fontStyle=1" parent="1" vertex="1">
          <mxGeometry x="198" y="-565" width="90" height="30" as="geometry" />
        </mxCell>
        <mxCell id="HWSu922vNIc9RlCDlfOk-1" style="edgeStyle=orthogonalEdgeStyle;rounded=0;orthogonalLoop=1;jettySize=auto;html=1;exitX=1;exitY=0.5;exitDx=0;exitDy=0;entryX=0;entryY=0.5;entryDx=0;entryDy=0;endArrow=none;endFill=0;" parent="1" source="HWSu922vNIc9RlCDlfOk-3" target="HWSu922vNIc9RlCDlfOk-12" edge="1">
          <mxGeometry relative="1" as="geometry" />
        </mxCell>
        <mxCell id="HWSu922vNIc9RlCDlfOk-2" style="edgeStyle=orthogonalEdgeStyle;rounded=0;orthogonalLoop=1;jettySize=auto;html=1;exitX=0.5;exitY=1;exitDx=0;exitDy=0;entryX=0.5;entryY=0;entryDx=0;entryDy=0;endArrow=none;endFill=0;" parent="1" source="HWSu922vNIc9RlCDlfOk-3" target="HWSu922vNIc9RlCDlfOk-19" edge="1">
          <mxGeometry relative="1" as="geometry" />
        </mxCell>
        <mxCell id="HWSu922vNIc9RlCDlfOk-3" value="Mesa" style="rounded=0;whiteSpace=wrap;html=1;fillColor=#dae8fc;strokeColor=#6c8ebf;" parent="1" vertex="1">
          <mxGeometry x="790" y="-358" width="120" height="60" as="geometry" />
        </mxCell>
        <mxCell id="HWSu922vNIc9RlCDlfOk-4" value="Estado" style="rounded=0;whiteSpace=wrap;html=1;" parent="1" vertex="1">
          <mxGeometry x="790" y="-538" width="120" height="60" as="geometry" />
        </mxCell>
        <mxCell id="HWSu922vNIc9RlCDlfOk-5" value="" style="endArrow=none;html=1;rounded=0;entryX=0.5;entryY=1;entryDx=0;entryDy=0;exitX=0.5;exitY=0;exitDx=0;exitDy=0;" parent="1" source="HWSu922vNIc9RlCDlfOk-3" target="HWSu922vNIc9RlCDlfOk-4" edge="1">
          <mxGeometry width="50" height="50" relative="1" as="geometry">
            <mxPoint x="830" y="-308" as="sourcePoint" />
            <mxPoint x="880" y="-358" as="targetPoint" />
          </mxGeometry>
        </mxCell>
        <mxCell id="HWSu922vNIc9RlCDlfOk-6" value="Tiene" style="text;html=1;align=center;verticalAlign=middle;resizable=0;points=[];autosize=1;strokeColor=none;fillColor=none;" parent="1" vertex="1">
          <mxGeometry x="850" y="-408" width="50" height="30" as="geometry" />
        </mxCell>
        <mxCell id="HWSu922vNIc9RlCDlfOk-7" value="" style="endArrow=classic;html=1;rounded=0;" parent="1" edge="1">
          <mxGeometry width="50" height="50" relative="1" as="geometry">
            <mxPoint x="874.5" y="-408" as="sourcePoint" />
            <mxPoint x="874.5" y="-448" as="targetPoint" />
          </mxGeometry>
        </mxCell>
        <mxCell id="HWSu922vNIc9RlCDlfOk-8" value="1" style="text;html=1;align=center;verticalAlign=middle;resizable=0;points=[];autosize=1;strokeColor=none;fillColor=none;" parent="1" vertex="1">
          <mxGeometry x="855" y="-480" width="30" height="30" as="geometry" />
        </mxCell>
        <mxCell id="HWSu922vNIc9RlCDlfOk-9" value="Pertenece" style="text;html=1;align=center;verticalAlign=middle;resizable=0;points=[];autosize=1;strokeColor=none;fillColor=none;" parent="1" vertex="1">
          <mxGeometry x="770" y="-450" width="80" height="30" as="geometry" />
        </mxCell>
        <mxCell id="HWSu922vNIc9RlCDlfOk-10" value="" style="endArrow=classic;html=1;rounded=0;" parent="1" edge="1">
          <mxGeometry width="50" height="50" relative="1" as="geometry">
            <mxPoint x="820" y="-425" as="sourcePoint" />
            <mxPoint x="820" y="-388" as="targetPoint" />
          </mxGeometry>
        </mxCell>
        <mxCell id="HWSu922vNIc9RlCDlfOk-11" value="1...*" style="text;html=1;align=center;verticalAlign=middle;resizable=0;points=[];autosize=1;strokeColor=none;fillColor=none;" parent="1" vertex="1">
          <mxGeometry x="807" y="-383" width="40" height="30" as="geometry" />
        </mxCell>
        <mxCell id="HWSu922vNIc9RlCDlfOk-12" value="Ubicacion" style="rounded=0;whiteSpace=wrap;html=1;" parent="1" vertex="1">
          <mxGeometry x="1060" y="-358" width="120" height="60" as="geometry" />
        </mxCell>
        <mxCell id="HWSu922vNIc9RlCDlfOk-13" value="Tiene" style="text;html=1;align=center;verticalAlign=middle;resizable=0;points=[];autosize=1;strokeColor=none;fillColor=none;" parent="1" vertex="1">
          <mxGeometry x="965" y="-358" width="50" height="30" as="geometry" />
        </mxCell>
        <mxCell id="HWSu922vNIc9RlCDlfOk-14" value="1" style="text;html=1;align=center;verticalAlign=middle;resizable=0;points=[];autosize=1;strokeColor=none;fillColor=none;" parent="1" vertex="1">
          <mxGeometry x="1030" y="-358" width="30" height="30" as="geometry" />
        </mxCell>
        <mxCell id="HWSu922vNIc9RlCDlfOk-15" value="Pertenece" style="text;html=1;align=center;verticalAlign=middle;resizable=0;points=[];autosize=1;strokeColor=none;fillColor=none;" parent="1" vertex="1">
          <mxGeometry x="950" y="-328" width="80" height="30" as="geometry" />
        </mxCell>
        <mxCell id="HWSu922vNIc9RlCDlfOk-16" value="1...*" style="text;html=1;align=center;verticalAlign=middle;resizable=0;points=[];autosize=1;strokeColor=none;fillColor=none;" parent="1" vertex="1">
          <mxGeometry x="908" y="-328" width="40" height="30" as="geometry" />
        </mxCell>
        <mxCell id="HWSu922vNIc9RlCDlfOk-17" value="" style="endArrow=classic;html=1;rounded=0;" parent="1" edge="1">
          <mxGeometry width="50" height="50" relative="1" as="geometry">
            <mxPoint x="965" y="-359.00000000000006" as="sourcePoint" />
            <mxPoint x="1010" y="-358.6" as="targetPoint" />
          </mxGeometry>
        </mxCell>
        <mxCell id="HWSu922vNIc9RlCDlfOk-18" value="" style="endArrow=classic;html=1;rounded=0;entryX=0;entryY=-0.08;entryDx=0;entryDy=0;entryPerimeter=0;exitX=1.088;exitY=-0.053;exitDx=0;exitDy=0;exitPerimeter=0;" parent="1" edge="1">
          <mxGeometry width="50" height="50" relative="1" as="geometry">
            <mxPoint x="1017.2" y="-297.19000000000005" as="sourcePoint" />
            <mxPoint x="962.8" y="-298" as="targetPoint" />
          </mxGeometry>
        </mxCell>
        <mxCell id="HWSu922vNIc9RlCDlfOk-19" value="TipoMesa" style="rounded=0;whiteSpace=wrap;html=1;" parent="1" vertex="1">
          <mxGeometry x="790" y="-198" width="120" height="60" as="geometry" />
        </mxCell>
        <mxCell id="HWSu922vNIc9RlCDlfOk-20" value="Tiene" style="text;html=1;align=center;verticalAlign=middle;resizable=0;points=[];autosize=1;strokeColor=none;fillColor=none;" parent="1" vertex="1">
          <mxGeometry x="802" y="-258" width="50" height="30" as="geometry" />
        </mxCell>
        <mxCell id="HWSu922vNIc9RlCDlfOk-21" value="" style="endArrow=classic;html=1;rounded=0;" parent="1" edge="1">
          <mxGeometry width="50" height="50" relative="1" as="geometry">
            <mxPoint x="808" y="-264" as="sourcePoint" />
            <mxPoint x="808" y="-227" as="targetPoint" />
          </mxGeometry>
        </mxCell>
        <mxCell id="HWSu922vNIc9RlCDlfOk-22" value="1...*" style="text;html=1;align=center;verticalAlign=middle;resizable=0;points=[];autosize=1;strokeColor=none;fillColor=none;" parent="1" vertex="1">
          <mxGeometry x="814" y="-224" width="40" height="30" as="geometry" />
        </mxCell>
        <mxCell id="HWSu922vNIc9RlCDlfOk-23" value="Pertenece" style="text;html=1;align=center;verticalAlign=middle;resizable=0;points=[];autosize=1;strokeColor=none;fillColor=none;" parent="1" vertex="1">
          <mxGeometry x="847" y="-258" width="80" height="30" as="geometry" />
        </mxCell>
        <mxCell id="HWSu922vNIc9RlCDlfOk-24" value="" style="endArrow=classic;html=1;rounded=0;" parent="1" edge="1">
          <mxGeometry width="50" height="50" relative="1" as="geometry">
            <mxPoint x="920" y="-223" as="sourcePoint" />
            <mxPoint x="920" y="-263" as="targetPoint" />
          </mxGeometry>
        </mxCell>
        <mxCell id="Y-uBUpKq3tKVKsPcx1rK-1" value="Mesa" style="text;html=1;align=center;verticalAlign=middle;resizable=0;points=[];autosize=1;strokeColor=none;fillColor=none;fontSize=14;fontStyle=1" parent="1" vertex="1">
          <mxGeometry x="960" y="-593.72" width="60" height="30" as="geometry" />
        </mxCell>
        <mxCell id="jlpA_XN1OmBxLnFqQBSb-1" value="Notificacion" style="text;html=1;align=center;verticalAlign=middle;resizable=0;points=[];autosize=1;strokeColor=none;fillColor=none;fontSize=14;fontStyle=1" parent="1" vertex="1">
          <mxGeometry x="193" y="-1140" width="100" height="30" as="geometry" />
        </mxCell>
        <mxCell id="r1UfJzGzLBvQBDOCbVjd-1" style="edgeStyle=orthogonalEdgeStyle;rounded=0;orthogonalLoop=1;jettySize=auto;html=1;exitX=1;exitY=0.5;exitDx=0;exitDy=0;entryX=0;entryY=0.5;entryDx=0;entryDy=0;endArrow=none;endFill=0;" edge="1" parent="1" source="r1UfJzGzLBvQBDOCbVjd-2" target="r1UfJzGzLBvQBDOCbVjd-13">
          <mxGeometry relative="1" as="geometry" />
        </mxCell>
        <mxCell id="r1UfJzGzLBvQBDOCbVjd-2" value="Notificacion" style="rounded=0;whiteSpace=wrap;html=1;" vertex="1" parent="1">
          <mxGeometry x="50" y="-880" width="120" height="60" as="geometry" />
        </mxCell>
        <mxCell id="r1UfJzGzLBvQBDOCbVjd-3" value="TipoNotificacion" style="rounded=0;whiteSpace=wrap;html=1;" vertex="1" parent="1">
          <mxGeometry x="50" y="-1100" width="120" height="60" as="geometry" />
        </mxCell>
        <mxCell id="r1UfJzGzLBvQBDOCbVjd-4" value="Tiene" style="text;html=1;align=center;verticalAlign=middle;resizable=0;points=[];autosize=1;strokeColor=none;fillColor=none;" vertex="1" parent="1">
          <mxGeometry x="110" y="-950" width="50" height="30" as="geometry" />
        </mxCell>
        <mxCell id="r1UfJzGzLBvQBDOCbVjd-5" value="" style="endArrow=classic;html=1;rounded=0;" edge="1" parent="1">
          <mxGeometry width="50" height="50" relative="1" as="geometry">
            <mxPoint x="134.5" y="-950" as="sourcePoint" />
            <mxPoint x="134.5" y="-990" as="targetPoint" />
          </mxGeometry>
        </mxCell>
        <mxCell id="r1UfJzGzLBvQBDOCbVjd-6" value="Pertenece" style="text;html=1;align=center;verticalAlign=middle;resizable=0;points=[];autosize=1;strokeColor=none;fillColor=none;" vertex="1" parent="1">
          <mxGeometry x="30" y="-986" width="80" height="30" as="geometry" />
        </mxCell>
        <mxCell id="r1UfJzGzLBvQBDOCbVjd-7" value="" style="endArrow=classic;html=1;rounded=0;" edge="1" parent="1">
          <mxGeometry width="50" height="50" relative="1" as="geometry">
            <mxPoint x="80" y="-961" as="sourcePoint" />
            <mxPoint x="80" y="-924" as="targetPoint" />
          </mxGeometry>
        </mxCell>
        <mxCell id="r1UfJzGzLBvQBDOCbVjd-8" value="" style="endArrow=none;html=1;rounded=0;entryX=0.5;entryY=1;entryDx=0;entryDy=0;exitX=0.5;exitY=0;exitDx=0;exitDy=0;" edge="1" parent="1" target="r1UfJzGzLBvQBDOCbVjd-3">
          <mxGeometry width="50" height="50" relative="1" as="geometry">
            <mxPoint x="110" y="-880" as="sourcePoint" />
            <mxPoint x="110" y="-1000" as="targetPoint" />
          </mxGeometry>
        </mxCell>
        <mxCell id="r1UfJzGzLBvQBDOCbVjd-9" value="1...*" style="text;html=1;align=center;verticalAlign=middle;resizable=0;points=[];autosize=1;strokeColor=none;fillColor=none;" vertex="1" parent="1">
          <mxGeometry x="109" y="-1042" width="40" height="30" as="geometry" />
        </mxCell>
        <mxCell id="r1UfJzGzLBvQBDOCbVjd-10" value="1" style="text;html=1;align=center;verticalAlign=middle;resizable=0;points=[];autosize=1;strokeColor=none;fillColor=none;" vertex="1" parent="1">
          <mxGeometry x="85" y="-907" width="30" height="30" as="geometry" />
        </mxCell>
        <mxCell id="r1UfJzGzLBvQBDOCbVjd-11" style="edgeStyle=orthogonalEdgeStyle;rounded=0;orthogonalLoop=1;jettySize=auto;html=1;exitX=0.5;exitY=0;exitDx=0;exitDy=0;entryX=0.5;entryY=1;entryDx=0;entryDy=0;endArrow=none;endFill=0;" edge="1" parent="1" source="r1UfJzGzLBvQBDOCbVjd-12" target="r1UfJzGzLBvQBDOCbVjd-13">
          <mxGeometry relative="1" as="geometry" />
        </mxCell>
        <mxCell id="r1UfJzGzLBvQBDOCbVjd-12" value="Reserva" style="rounded=0;whiteSpace=wrap;html=1;" vertex="1" parent="1">
          <mxGeometry x="320" y="-710" width="120" height="60" as="geometry" />
        </mxCell>
        <mxCell id="r1UfJzGzLBvQBDOCbVjd-26" style="edgeStyle=orthogonalEdgeStyle;rounded=0;orthogonalLoop=1;jettySize=auto;html=1;exitX=1;exitY=0.5;exitDx=0;exitDy=0;entryX=1;entryY=0.5;entryDx=0;entryDy=0;endArrow=none;endFill=0;strokeWidth=10;fillColor=#e1d5e7;strokeColor=#9673a6;" edge="1" parent="1" source="r1UfJzGzLBvQBDOCbVjd-13" target="8DekjPvpLVKMl7ppozE_-4">
          <mxGeometry relative="1" as="geometry">
            <mxPoint x="300" y="-490" as="targetPoint" />
          </mxGeometry>
        </mxCell>
        <mxCell id="r1UfJzGzLBvQBDOCbVjd-13" value="InformacionReserva" style="rounded=0;whiteSpace=wrap;html=1;fillColor=#e1d5e7;strokeColor=#9673a6;" vertex="1" parent="1">
          <mxGeometry x="320" y="-880" width="120" height="60" as="geometry" />
        </mxCell>
        <mxCell id="r1UfJzGzLBvQBDOCbVjd-14" value="tiene" style="text;html=1;align=center;verticalAlign=middle;resizable=0;points=[];autosize=1;strokeColor=none;fillColor=none;" vertex="1" parent="1">
          <mxGeometry x="220" y="-849" width="50" height="30" as="geometry" />
        </mxCell>
        <mxCell id="r1UfJzGzLBvQBDOCbVjd-15" value="1...*" style="text;html=1;align=center;verticalAlign=middle;resizable=0;points=[];autosize=1;strokeColor=none;fillColor=none;" vertex="1" parent="1">
          <mxGeometry x="166" y="-878" width="40" height="30" as="geometry" />
        </mxCell>
        <mxCell id="r1UfJzGzLBvQBDOCbVjd-16" value="" style="endArrow=classic;html=1;rounded=0;" edge="1" parent="1">
          <mxGeometry width="50" height="50" relative="1" as="geometry">
            <mxPoint x="225" y="-823" as="sourcePoint" />
            <mxPoint x="265" y="-823" as="targetPoint" />
          </mxGeometry>
        </mxCell>
        <mxCell id="r1UfJzGzLBvQBDOCbVjd-17" value="Pertenece" style="text;html=1;align=center;verticalAlign=middle;resizable=0;points=[];autosize=1;strokeColor=none;fillColor=none;" vertex="1" parent="1">
          <mxGeometry x="200" y="-882" width="80" height="30" as="geometry" />
        </mxCell>
        <mxCell id="r1UfJzGzLBvQBDOCbVjd-18" value="" style="endArrow=classic;html=1;rounded=0;entryX=-0.008;entryY=0.053;entryDx=0;entryDy=0;entryPerimeter=0;" edge="1" parent="1">
          <mxGeometry width="50" height="50" relative="1" as="geometry">
            <mxPoint x="265.20000000000005" y="-881.59" as="sourcePoint" />
            <mxPoint x="214.79999999999995" y="-882" as="targetPoint" />
          </mxGeometry>
        </mxCell>
        <mxCell id="r1UfJzGzLBvQBDOCbVjd-19" value="1" style="text;html=1;align=center;verticalAlign=middle;resizable=0;points=[];autosize=1;strokeColor=none;fillColor=none;" vertex="1" parent="1">
          <mxGeometry x="290" y="-852" width="30" height="30" as="geometry" />
        </mxCell>
        <mxCell id="r1UfJzGzLBvQBDOCbVjd-20" value="Pertenece" style="text;html=1;align=center;verticalAlign=middle;resizable=0;points=[];autosize=1;strokeColor=none;fillColor=none;" vertex="1" parent="1">
          <mxGeometry x="310" y="-780" width="80" height="30" as="geometry" />
        </mxCell>
        <mxCell id="r1UfJzGzLBvQBDOCbVjd-21" value="" style="endArrow=classic;html=1;rounded=0;" edge="1" parent="1">
          <mxGeometry width="50" height="50" relative="1" as="geometry">
            <mxPoint x="316" y="-790" as="sourcePoint" />
            <mxPoint x="316" y="-753" as="targetPoint" />
          </mxGeometry>
        </mxCell>
        <mxCell id="r1UfJzGzLBvQBDOCbVjd-22" value="tiene" style="text;html=1;align=center;verticalAlign=middle;resizable=0;points=[];autosize=1;strokeColor=none;fillColor=none;" vertex="1" parent="1">
          <mxGeometry x="380" y="-780" width="50" height="30" as="geometry" />
        </mxCell>
        <mxCell id="r1UfJzGzLBvQBDOCbVjd-23" value="" style="endArrow=classic;html=1;rounded=0;" edge="1" parent="1">
          <mxGeometry width="50" height="50" relative="1" as="geometry">
            <mxPoint x="429" y="-755" as="sourcePoint" />
            <mxPoint x="429" y="-795" as="targetPoint" />
          </mxGeometry>
        </mxCell>
        <mxCell id="r1UfJzGzLBvQBDOCbVjd-24" value="1" style="text;html=1;align=center;verticalAlign=middle;resizable=0;points=[];autosize=1;strokeColor=none;fillColor=none;" vertex="1" parent="1">
          <mxGeometry x="350" y="-740" width="30" height="30" as="geometry" />
        </mxCell>
        <mxCell id="r1UfJzGzLBvQBDOCbVjd-25" value="1" style="text;html=1;align=center;verticalAlign=middle;resizable=0;points=[];autosize=1;strokeColor=none;fillColor=none;" vertex="1" parent="1">
          <mxGeometry x="380" y="-823" width="30" height="30" as="geometry" />
        </mxCell>
        <mxCell id="8DekjPvpLVKMl7ppozE_-1" style="edgeStyle=orthogonalEdgeStyle;rounded=0;orthogonalLoop=1;jettySize=auto;html=1;exitX=0.5;exitY=1;exitDx=0;exitDy=0;endArrow=none;endFill=0;" edge="1" parent="1" source="8DekjPvpLVKMl7ppozE_-3" target="8DekjPvpLVKMl7ppozE_-19">
          <mxGeometry relative="1" as="geometry" />
        </mxCell>
        <mxCell id="8DekjPvpLVKMl7ppozE_-2" style="edgeStyle=orthogonalEdgeStyle;rounded=0;orthogonalLoop=1;jettySize=auto;html=1;exitX=1;exitY=0.5;exitDx=0;exitDy=0;endArrow=none;endFill=0;" edge="1" parent="1" source="8DekjPvpLVKMl7ppozE_-3" target="8DekjPvpLVKMl7ppozE_-29">
          <mxGeometry relative="1" as="geometry" />
        </mxCell>
        <mxCell id="8DekjPvpLVKMl7ppozE_-3" value="Reserva" style="rounded=0;whiteSpace=wrap;html=1;fillColor=#A20025;fontColor=#FFFFFF;" vertex="1" parent="1">
          <mxGeometry x="-75" y="-358" width="120" height="60" as="geometry" />
        </mxCell>
        <mxCell id="8DekjPvpLVKMl7ppozE_-4" value="NotificacionReserva" style="rounded=0;whiteSpace=wrap;html=1;fillColor=#e1d5e7;strokeColor=#9673a6;" vertex="1" parent="1">
          <mxGeometry x="-75" y="-528" width="120" height="60" as="geometry" />
        </mxCell>
        <mxCell id="8DekjPvpLVKMl7ppozE_-5" value="" style="endArrow=none;html=1;rounded=0;entryX=0.5;entryY=1;entryDx=0;entryDy=0;exitX=0.5;exitY=0;exitDx=0;exitDy=0;" edge="1" parent="1" source="8DekjPvpLVKMl7ppozE_-3" target="8DekjPvpLVKMl7ppozE_-4">
          <mxGeometry width="50" height="50" relative="1" as="geometry">
            <mxPoint x="-35" y="-308" as="sourcePoint" />
            <mxPoint x="15" y="-358" as="targetPoint" />
          </mxGeometry>
        </mxCell>
        <mxCell id="8DekjPvpLVKMl7ppozE_-6" value="Tiene" style="text;html=1;align=center;verticalAlign=middle;resizable=0;points=[];autosize=1;strokeColor=none;fillColor=none;" vertex="1" parent="1">
          <mxGeometry x="-20" y="-398" width="50" height="30" as="geometry" />
        </mxCell>
        <mxCell id="8DekjPvpLVKMl7ppozE_-7" value="" style="endArrow=classic;html=1;rounded=0;" edge="1" parent="1">
          <mxGeometry width="50" height="50" relative="1" as="geometry">
            <mxPoint x="4.5" y="-398" as="sourcePoint" />
            <mxPoint x="4.5" y="-428" as="targetPoint" />
          </mxGeometry>
        </mxCell>
        <mxCell id="8DekjPvpLVKMl7ppozE_-8" value="1...*" style="text;html=1;align=center;verticalAlign=middle;resizable=0;points=[];autosize=1;strokeColor=none;fillColor=none;" vertex="1" parent="1">
          <mxGeometry x="-5" y="-468" width="40" height="30" as="geometry" />
        </mxCell>
        <mxCell id="8DekjPvpLVKMl7ppozE_-9" value="Pertenece" style="text;html=1;align=center;verticalAlign=middle;resizable=0;points=[];autosize=1;strokeColor=none;fillColor=none;" vertex="1" parent="1">
          <mxGeometry x="-85" y="-418" width="80" height="30" as="geometry" />
        </mxCell>
        <mxCell id="8DekjPvpLVKMl7ppozE_-10" value="" style="endArrow=classic;html=1;rounded=0;" edge="1" parent="1">
          <mxGeometry width="50" height="50" relative="1" as="geometry">
            <mxPoint x="-31" y="-448" as="sourcePoint" />
            <mxPoint x="-31" y="-418" as="targetPoint" />
          </mxGeometry>
        </mxCell>
        <mxCell id="8DekjPvpLVKMl7ppozE_-11" value="1" style="text;html=1;align=center;verticalAlign=middle;resizable=0;points=[];autosize=1;strokeColor=none;fillColor=none;" vertex="1" parent="1">
          <mxGeometry x="-50" y="-388" width="30" height="30" as="geometry" />
        </mxCell>
        <mxCell id="8DekjPvpLVKMl7ppozE_-12" value="ReservaMesa" style="rounded=0;whiteSpace=wrap;html=1;fillColor=#dae8fc;strokeColor=#6c8ebf;" vertex="1" parent="1">
          <mxGeometry x="465" y="-358" width="120" height="60" as="geometry" />
        </mxCell>
        <mxCell id="8DekjPvpLVKMl7ppozE_-13" value="Tiene" style="text;html=1;align=center;verticalAlign=middle;resizable=0;points=[];autosize=1;strokeColor=none;fillColor=none;" vertex="1" parent="1">
          <mxGeometry x="360" y="-326.5" width="50" height="30" as="geometry" />
        </mxCell>
        <mxCell id="8DekjPvpLVKMl7ppozE_-14" value="" style="endArrow=classic;html=1;rounded=0;entryX=0;entryY=-0.08;entryDx=0;entryDy=0;entryPerimeter=0;exitX=1.088;exitY=-0.053;exitDx=0;exitDy=0;exitPerimeter=0;" edge="1" parent="1">
          <mxGeometry width="50" height="50" relative="1" as="geometry">
            <mxPoint x="410" y="-367.19000000000005" as="sourcePoint" />
            <mxPoint x="355.5999999999999" y="-368" as="targetPoint" />
          </mxGeometry>
        </mxCell>
        <mxCell id="8DekjPvpLVKMl7ppozE_-15" value="1" style="text;html=1;align=center;verticalAlign=middle;resizable=0;points=[];autosize=1;strokeColor=none;fillColor=none;" vertex="1" parent="1">
          <mxGeometry x="315" y="-360" width="30" height="30" as="geometry" />
        </mxCell>
        <mxCell id="8DekjPvpLVKMl7ppozE_-16" value="Pertenece" style="text;html=1;align=center;verticalAlign=middle;resizable=0;points=[];autosize=1;strokeColor=none;fillColor=none;" vertex="1" parent="1">
          <mxGeometry x="345" y="-360.00000000000006" width="80" height="30" as="geometry" />
        </mxCell>
        <mxCell id="8DekjPvpLVKMl7ppozE_-17" value="" style="endArrow=classic;html=1;rounded=0;" edge="1" parent="1">
          <mxGeometry width="50" height="50" relative="1" as="geometry">
            <mxPoint x="362.5" y="-293.00000000000006" as="sourcePoint" />
            <mxPoint x="407.5" y="-292.6" as="targetPoint" />
          </mxGeometry>
        </mxCell>
        <mxCell id="8DekjPvpLVKMl7ppozE_-18" value="0...*" style="text;html=1;align=center;verticalAlign=middle;resizable=0;points=[];autosize=1;strokeColor=none;fillColor=none;" vertex="1" parent="1">
          <mxGeometry x="425" y="-324.50000000000006" width="40" height="30" as="geometry" />
        </mxCell>
        <mxCell id="8DekjPvpLVKMl7ppozE_-19" value="InfoCliente" style="rounded=0;whiteSpace=wrap;html=1;fillColor=#d5e8d4;strokeColor=#82b366;" vertex="1" parent="1">
          <mxGeometry x="-75" y="-198" width="120" height="60" as="geometry" />
        </mxCell>
        <mxCell id="8DekjPvpLVKMl7ppozE_-20" value="pertenece" style="text;html=1;align=center;verticalAlign=middle;resizable=0;points=[];autosize=1;strokeColor=none;fillColor=none;" vertex="1" parent="1">
          <mxGeometry x="-85" y="-260" width="80" height="30" as="geometry" />
        </mxCell>
        <mxCell id="8DekjPvpLVKMl7ppozE_-21" value="" style="endArrow=classic;html=1;rounded=0;" edge="1" parent="1">
          <mxGeometry width="50" height="50" relative="1" as="geometry">
            <mxPoint x="-78" y="-260" as="sourcePoint" />
            <mxPoint x="-78" y="-230" as="targetPoint" />
          </mxGeometry>
        </mxCell>
        <mxCell id="8DekjPvpLVKMl7ppozE_-22" value="está" style="text;html=1;align=center;verticalAlign=middle;resizable=0;points=[];autosize=1;strokeColor=none;fillColor=none;" vertex="1" parent="1">
          <mxGeometry x="-20" y="-260" width="50" height="30" as="geometry" />
        </mxCell>
        <mxCell id="8DekjPvpLVKMl7ppozE_-23" value="" style="endArrow=classic;html=1;rounded=0;" edge="1" parent="1">
          <mxGeometry width="50" height="50" relative="1" as="geometry">
            <mxPoint x="29" y="-230" as="sourcePoint" />
            <mxPoint x="29" y="-260" as="targetPoint" />
          </mxGeometry>
        </mxCell>
        <mxCell id="8DekjPvpLVKMl7ppozE_-24" value="1" style="text;html=1;align=center;verticalAlign=middle;resizable=0;points=[];autosize=1;strokeColor=none;fillColor=none;" vertex="1" parent="1">
          <mxGeometry x="-40" y="-223" width="30" height="30" as="geometry" />
        </mxCell>
        <mxCell id="8DekjPvpLVKMl7ppozE_-25" value="0...*" style="text;html=1;align=center;verticalAlign=middle;resizable=0;points=[];autosize=1;strokeColor=none;fillColor=none;" vertex="1" parent="1">
          <mxGeometry x="-19" y="-300" width="40" height="30" as="geometry" />
        </mxCell>
        <mxCell id="8DekjPvpLVKMl7ppozE_-26" value="(cliente)" style="text;html=1;align=center;verticalAlign=middle;resizable=0;points=[];autosize=1;strokeColor=none;fillColor=none;" vertex="1" parent="1">
          <mxGeometry x="-50" y="-138" width="70" height="30" as="geometry" />
        </mxCell>
        <mxCell id="8DekjPvpLVKMl7ppozE_-27" value="(Mesa)" style="text;html=1;align=center;verticalAlign=middle;resizable=0;points=[];autosize=1;strokeColor=none;fillColor=none;" vertex="1" parent="1">
          <mxGeometry x="495" y="-294.5" width="60" height="30" as="geometry" />
        </mxCell>
        <mxCell id="8DekjPvpLVKMl7ppozE_-28" style="edgeStyle=orthogonalEdgeStyle;rounded=0;orthogonalLoop=1;jettySize=auto;html=1;exitX=1;exitY=0.5;exitDx=0;exitDy=0;entryX=0;entryY=0.5;entryDx=0;entryDy=0;endArrow=none;endFill=0;" edge="1" parent="1" source="8DekjPvpLVKMl7ppozE_-29" target="8DekjPvpLVKMl7ppozE_-12">
          <mxGeometry relative="1" as="geometry" />
        </mxCell>
        <mxCell id="8DekjPvpLVKMl7ppozE_-29" value="FechaHora" style="rounded=0;whiteSpace=wrap;html=1;" vertex="1" parent="1">
          <mxGeometry x="195" y="-358" width="120" height="60" as="geometry" />
        </mxCell>
        <mxCell id="8DekjPvpLVKMl7ppozE_-30" value="" style="endArrow=classic;html=1;rounded=0;entryX=0;entryY=-0.08;entryDx=0;entryDy=0;entryPerimeter=0;exitX=1.088;exitY=-0.053;exitDx=0;exitDy=0;exitPerimeter=0;" edge="1" parent="1">
          <mxGeometry width="50" height="50" relative="1" as="geometry">
            <mxPoint x="145" y="-360" as="sourcePoint" />
            <mxPoint x="91" y="-360" as="targetPoint" />
          </mxGeometry>
        </mxCell>
        <mxCell id="8DekjPvpLVKMl7ppozE_-31" value="tiene" style="text;html=1;align=center;verticalAlign=middle;resizable=0;points=[];autosize=1;strokeColor=none;fillColor=none;" vertex="1" parent="1">
          <mxGeometry x="95" y="-324.5" width="50" height="30" as="geometry" />
        </mxCell>
        <mxCell id="8DekjPvpLVKMl7ppozE_-32" value="" style="endArrow=classic;html=1;rounded=0;entryX=0.857;entryY=1.133;entryDx=0;entryDy=0;entryPerimeter=0;" edge="1" parent="1">
          <mxGeometry width="50" height="50" relative="1" as="geometry">
            <mxPoint x="98" y="-295.5" as="sourcePoint" />
            <mxPoint x="142" y="-295.5" as="targetPoint" />
          </mxGeometry>
        </mxCell>
        <mxCell id="8DekjPvpLVKMl7ppozE_-33" value="1" style="text;html=1;align=center;verticalAlign=middle;resizable=0;points=[];autosize=1;strokeColor=none;fillColor=none;" vertex="1" parent="1">
          <mxGeometry x="165" y="-324.5" width="30" height="30" as="geometry" />
        </mxCell>
        <mxCell id="8DekjPvpLVKMl7ppozE_-34" value="pertenece" style="text;html=1;align=center;verticalAlign=middle;resizable=0;points=[];autosize=1;strokeColor=none;fillColor=none;" vertex="1" parent="1">
          <mxGeometry x="80" y="-358" width="80" height="30" as="geometry" />
        </mxCell>
        <mxCell id="8DekjPvpLVKMl7ppozE_-35" value="1...*" style="text;html=1;align=center;verticalAlign=middle;resizable=0;points=[];autosize=1;strokeColor=none;fillColor=none;" vertex="1" parent="1">
          <mxGeometry x="45" y="-360" width="40" height="30" as="geometry" />
        </mxCell>
        <mxCell id="8DekjPvpLVKMl7ppozE_-36" value="(Notificacion)" style="text;html=1;align=center;verticalAlign=middle;resizable=0;points=[];autosize=1;strokeColor=none;fillColor=none;" vertex="1" parent="1">
          <mxGeometry x="-60" y="-558" width="90" height="30" as="geometry" />
        </mxCell>
        <mxCell id="GDxuiQRZNwiL5hh79bfY-1" style="edgeStyle=orthogonalEdgeStyle;rounded=0;orthogonalLoop=1;jettySize=auto;html=1;exitX=0;exitY=0.5;exitDx=0;exitDy=0;entryX=1;entryY=0.5;entryDx=0;entryDy=0;endArrow=none;endFill=0;" edge="1" parent="1" source="GDxuiQRZNwiL5hh79bfY-2" target="GDxuiQRZNwiL5hh79bfY-3">
          <mxGeometry relative="1" as="geometry" />
        </mxCell>
        <mxCell id="GDxuiQRZNwiL5hh79bfY-2" value="Cliente" style="rounded=0;whiteSpace=wrap;html=1;fillColor=#d5e8d4;strokeColor=#82b366;" vertex="1" parent="1">
          <mxGeometry x="243.5" y="141" width="120" height="60" as="geometry" />
        </mxCell>
        <mxCell id="GDxuiQRZNwiL5hh79bfY-3" value="TipoIdentificacion" style="rounded=0;whiteSpace=wrap;html=1;" vertex="1" parent="1">
          <mxGeometry x="-16.5" y="141" width="120" height="60" as="geometry" />
        </mxCell>
        <mxCell id="GDxuiQRZNwiL5hh79bfY-4" value="Tiene" style="text;html=1;align=center;verticalAlign=middle;resizable=0;points=[];autosize=1;strokeColor=none;fillColor=none;" vertex="1" parent="1">
          <mxGeometry x="153.5" y="141" width="50" height="30" as="geometry" />
        </mxCell>
        <mxCell id="GDxuiQRZNwiL5hh79bfY-5" value="1" style="text;html=1;align=center;verticalAlign=middle;resizable=0;points=[];autosize=1;strokeColor=none;fillColor=none;" vertex="1" parent="1">
          <mxGeometry x="103.5" y="141" width="30" height="30" as="geometry" />
        </mxCell>
        <mxCell id="GDxuiQRZNwiL5hh79bfY-6" value="0...*" style="text;html=1;align=center;verticalAlign=middle;resizable=0;points=[];autosize=1;strokeColor=none;fillColor=none;" vertex="1" parent="1">
          <mxGeometry x="203.5" y="171" width="40" height="30" as="geometry" />
        </mxCell>
        <mxCell id="GDxuiQRZNwiL5hh79bfY-7" value="NumeroCelular" style="rounded=0;whiteSpace=wrap;html=1;" vertex="1" parent="1">
          <mxGeometry x="483.5" y="141" width="120" height="60" as="geometry" />
        </mxCell>
        <mxCell id="GDxuiQRZNwiL5hh79bfY-8" value="" style="endArrow=none;html=1;rounded=0;exitX=0;exitY=0.5;exitDx=0;exitDy=0;entryX=1;entryY=0.5;entryDx=0;entryDy=0;" edge="1" parent="1" source="GDxuiQRZNwiL5hh79bfY-7" target="GDxuiQRZNwiL5hh79bfY-2">
          <mxGeometry width="50" height="50" relative="1" as="geometry">
            <mxPoint x="413.5" y="181" as="sourcePoint" />
            <mxPoint x="293.5" y="101" as="targetPoint" />
          </mxGeometry>
        </mxCell>
        <mxCell id="GDxuiQRZNwiL5hh79bfY-9" value="Tiene" style="text;html=1;align=center;verticalAlign=middle;resizable=0;points=[];autosize=1;strokeColor=none;fillColor=none;" vertex="1" parent="1">
          <mxGeometry x="398.5" y="169" width="50" height="30" as="geometry" />
        </mxCell>
        <mxCell id="GDxuiQRZNwiL5hh79bfY-10" value="1" style="text;html=1;align=center;verticalAlign=middle;resizable=0;points=[];autosize=1;strokeColor=none;fillColor=none;" vertex="1" parent="1">
          <mxGeometry x="453.5" y="171" width="30" height="30" as="geometry" />
        </mxCell>
        <mxCell id="GDxuiQRZNwiL5hh79bfY-11" value="" style="endArrow=classic;html=1;rounded=0;entryX=0.99;entryY=1;entryDx=0;entryDy=0;entryPerimeter=0;" edge="1" parent="1">
          <mxGeometry width="50" height="50" relative="1" as="geometry">
            <mxPoint x="402.9" y="198" as="sourcePoint" />
            <mxPoint x="444.1" y="198" as="targetPoint" />
            <Array as="points" />
          </mxGeometry>
        </mxCell>
        <mxCell id="GDxuiQRZNwiL5hh79bfY-12" value="" style="endArrow=classic;html=1;rounded=0;" edge="1" parent="1">
          <mxGeometry width="50" height="50" relative="1" as="geometry">
            <mxPoint x="443.5" y="145" as="sourcePoint" />
            <mxPoint x="403.5" y="145" as="targetPoint" />
          </mxGeometry>
        </mxCell>
        <mxCell id="GDxuiQRZNwiL5hh79bfY-13" value="1" style="text;html=1;align=center;verticalAlign=middle;resizable=0;points=[];autosize=1;strokeColor=none;fillColor=none;" vertex="1" parent="1">
          <mxGeometry x="353.5" y="145" width="30" height="30" as="geometry" />
        </mxCell>
        <mxCell id="GDxuiQRZNwiL5hh79bfY-14" style="edgeStyle=orthogonalEdgeStyle;rounded=0;orthogonalLoop=1;jettySize=auto;html=1;exitX=0.5;exitY=0;exitDx=0;exitDy=0;entryX=0.5;entryY=1;entryDx=0;entryDy=0;endArrow=none;endFill=0;" edge="1" parent="1" source="GDxuiQRZNwiL5hh79bfY-15" target="GDxuiQRZNwiL5hh79bfY-2">
          <mxGeometry relative="1" as="geometry" />
        </mxCell>
        <mxCell id="I0qs2FOB7y4ocK4thiar-51" style="edgeStyle=orthogonalEdgeStyle;rounded=0;orthogonalLoop=1;jettySize=auto;html=1;exitX=0.5;exitY=1;exitDx=0;exitDy=0;entryX=0;entryY=0.5;entryDx=0;entryDy=0;endArrow=none;endFill=0;strokeWidth=10;strokeColor=#B0E3E6;" edge="1" parent="1" source="GDxuiQRZNwiL5hh79bfY-15" target="I0qs2FOB7y4ocK4thiar-26">
          <mxGeometry relative="1" as="geometry" />
        </mxCell>
        <mxCell id="GDxuiQRZNwiL5hh79bfY-15" value="ClienteMenu" style="rounded=0;whiteSpace=wrap;html=1;fillColor=#b0e3e6;strokeColor=#0e8088;" vertex="1" parent="1">
          <mxGeometry x="243.5" y="313" width="120" height="60" as="geometry" />
        </mxCell>
        <mxCell id="GDxuiQRZNwiL5hh79bfY-16" value="Tiene" style="text;html=1;align=center;verticalAlign=middle;resizable=0;points=[];autosize=1;strokeColor=none;fillColor=none;" vertex="1" parent="1">
          <mxGeometry x="303.5" y="253" width="50" height="30" as="geometry" />
        </mxCell>
        <mxCell id="GDxuiQRZNwiL5hh79bfY-17" value="" style="endArrow=classic;html=1;rounded=0;" edge="1" parent="1">
          <mxGeometry width="50" height="50" relative="1" as="geometry">
            <mxPoint x="327.5" y="225" as="sourcePoint" />
            <mxPoint x="327.5" y="255" as="targetPoint" />
          </mxGeometry>
        </mxCell>
        <mxCell id="GDxuiQRZNwiL5hh79bfY-18" value="Pertenece" style="text;html=1;align=center;verticalAlign=middle;resizable=0;points=[];autosize=1;strokeColor=none;fillColor=none;" vertex="1" parent="1">
          <mxGeometry x="218.5" y="251" width="80" height="30" as="geometry" />
        </mxCell>
        <mxCell id="GDxuiQRZNwiL5hh79bfY-19" value="0...*" style="text;html=1;align=center;verticalAlign=middle;resizable=0;points=[];autosize=1;strokeColor=none;fillColor=none;" vertex="1" parent="1">
          <mxGeometry x="268.5" y="201" width="40" height="30" as="geometry" />
        </mxCell>
        <mxCell id="GDxuiQRZNwiL5hh79bfY-20" value="1" style="text;html=1;align=center;verticalAlign=middle;resizable=0;points=[];autosize=1;strokeColor=none;fillColor=none;" vertex="1" parent="1">
          <mxGeometry x="303.5" y="283" width="30" height="30" as="geometry" />
        </mxCell>
        <mxCell id="GDxuiQRZNwiL5hh79bfY-21" value="Pertenece" style="text;html=1;align=center;verticalAlign=middle;resizable=0;points=[];autosize=1;strokeColor=none;fillColor=none;" vertex="1" parent="1">
          <mxGeometry x="383.5" y="145" width="80" height="30" as="geometry" />
        </mxCell>
        <mxCell id="GDxuiQRZNwiL5hh79bfY-22" value="" style="endArrow=classic;html=1;rounded=0;" edge="1" parent="1">
          <mxGeometry width="50" height="50" relative="1" as="geometry">
            <mxPoint x="193.5" y="140" as="sourcePoint" />
            <mxPoint x="153.5" y="140" as="targetPoint" />
          </mxGeometry>
        </mxCell>
        <mxCell id="GDxuiQRZNwiL5hh79bfY-23" value="Pertenece" style="text;html=1;align=center;verticalAlign=middle;resizable=0;points=[];autosize=1;strokeColor=none;fillColor=none;" vertex="1" parent="1">
          <mxGeometry x="133.5" y="169" width="80" height="30" as="geometry" />
        </mxCell>
        <mxCell id="GDxuiQRZNwiL5hh79bfY-24" value="" style="endArrow=classic;html=1;rounded=0;entryX=0.99;entryY=1;entryDx=0;entryDy=0;entryPerimeter=0;" edge="1" parent="1">
          <mxGeometry width="50" height="50" relative="1" as="geometry">
            <mxPoint x="157.89999999999998" y="199" as="sourcePoint" />
            <mxPoint x="199.10000000000002" y="199" as="targetPoint" />
            <Array as="points" />
          </mxGeometry>
        </mxCell>
        <mxCell id="GDxuiQRZNwiL5hh79bfY-25" value="" style="endArrow=classic;html=1;rounded=0;" edge="1" parent="1">
          <mxGeometry width="50" height="50" relative="1" as="geometry">
            <mxPoint x="290" y="278" as="sourcePoint" />
            <mxPoint x="290" y="238" as="targetPoint" />
          </mxGeometry>
        </mxCell>
        <mxCell id="I0qs2FOB7y4ocK4thiar-26" value="ClienteMenu" style="rounded=0;whiteSpace=wrap;html=1;fillColor=#B0E3E6;fontColor=#000000;" vertex="1" parent="1">
          <mxGeometry x="1109.5" y="77" width="120" height="60" as="geometry" />
        </mxCell>
        <mxCell id="I0qs2FOB7y4ocK4thiar-27" style="edgeStyle=orthogonalEdgeStyle;rounded=0;orthogonalLoop=1;jettySize=auto;html=1;exitX=0.5;exitY=0;exitDx=0;exitDy=0;entryX=0.5;entryY=1;entryDx=0;entryDy=0;endArrow=none;endFill=0;" edge="1" parent="1" source="I0qs2FOB7y4ocK4thiar-29" target="I0qs2FOB7y4ocK4thiar-26">
          <mxGeometry relative="1" as="geometry" />
        </mxCell>
        <mxCell id="I0qs2FOB7y4ocK4thiar-28" style="edgeStyle=orthogonalEdgeStyle;rounded=0;orthogonalLoop=1;jettySize=auto;html=1;exitX=0;exitY=0.5;exitDx=0;exitDy=0;entryX=1;entryY=0.5;entryDx=0;entryDy=0;" edge="1" parent="1" source="I0qs2FOB7y4ocK4thiar-29" target="I0qs2FOB7y4ocK4thiar-37">
          <mxGeometry relative="1" as="geometry" />
        </mxCell>
        <mxCell id="I0qs2FOB7y4ocK4thiar-29" value="Menu" style="rounded=0;whiteSpace=wrap;html=1;fillColor=#FFCCCC;strokeColor=#FFBFBF;" vertex="1" parent="1">
          <mxGeometry x="1109.5" y="229" width="120" height="60" as="geometry" />
        </mxCell>
        <mxCell id="I0qs2FOB7y4ocK4thiar-30" value="" style="endArrow=classic;html=1;rounded=0;" edge="1" parent="1">
          <mxGeometry width="50" height="50" relative="1" as="geometry">
            <mxPoint x="1119.5" y="172" as="sourcePoint" />
            <mxPoint x="1119.5" y="209" as="targetPoint" />
          </mxGeometry>
        </mxCell>
        <mxCell id="I0qs2FOB7y4ocK4thiar-31" value="" style="endArrow=classic;html=1;rounded=0;" edge="1" parent="1">
          <mxGeometry width="50" height="50" relative="1" as="geometry">
            <mxPoint x="1179.5" y="209" as="sourcePoint" />
            <mxPoint x="1179.5" y="169" as="targetPoint" />
          </mxGeometry>
        </mxCell>
        <mxCell id="I0qs2FOB7y4ocK4thiar-32" value="tiene" style="text;html=1;align=center;verticalAlign=middle;resizable=0;points=[];autosize=1;strokeColor=none;fillColor=none;" vertex="1" parent="1">
          <mxGeometry x="1119.5" y="169" width="50" height="30" as="geometry" />
        </mxCell>
        <mxCell id="I0qs2FOB7y4ocK4thiar-33" value="está" style="text;html=1;align=center;verticalAlign=middle;resizable=0;points=[];autosize=1;strokeColor=none;fillColor=none;" vertex="1" parent="1">
          <mxGeometry x="1169.5" y="179" width="50" height="30" as="geometry" />
        </mxCell>
        <mxCell id="I0qs2FOB7y4ocK4thiar-34" value="1...*" style="text;html=1;align=center;verticalAlign=middle;resizable=0;points=[];autosize=1;strokeColor=none;fillColor=none;" vertex="1" parent="1">
          <mxGeometry x="1129.5" y="199" width="40" height="30" as="geometry" />
        </mxCell>
        <mxCell id="I0qs2FOB7y4ocK4thiar-35" value="1" style="text;html=1;align=center;verticalAlign=middle;resizable=0;points=[];autosize=1;strokeColor=none;fillColor=none;" vertex="1" parent="1">
          <mxGeometry x="1169.5" y="137" width="30" height="30" as="geometry" />
        </mxCell>
        <mxCell id="I0qs2FOB7y4ocK4thiar-36" style="edgeStyle=orthogonalEdgeStyle;rounded=0;orthogonalLoop=1;jettySize=auto;html=1;exitX=0.5;exitY=1;exitDx=0;exitDy=0;entryX=0.5;entryY=0;entryDx=0;entryDy=0;endArrow=none;endFill=0;" edge="1" parent="1" source="I0qs2FOB7y4ocK4thiar-37" target="I0qs2FOB7y4ocK4thiar-38">
          <mxGeometry relative="1" as="geometry" />
        </mxCell>
        <mxCell id="I0qs2FOB7y4ocK4thiar-37" value="Subcategoría" style="rounded=0;whiteSpace=wrap;html=1;" vertex="1" parent="1">
          <mxGeometry x="840.5" y="229" width="120" height="60" as="geometry" />
        </mxCell>
        <mxCell id="I0qs2FOB7y4ocK4thiar-38" value="Categoría" style="rounded=0;whiteSpace=wrap;html=1;" vertex="1" parent="1">
          <mxGeometry x="840.5" y="379" width="120" height="60" as="geometry" />
        </mxCell>
        <mxCell id="I0qs2FOB7y4ocK4thiar-39" value="está" style="text;html=1;align=center;verticalAlign=middle;resizable=0;points=[];autosize=1;strokeColor=none;fillColor=none;" vertex="1" parent="1">
          <mxGeometry x="860.5" y="319" width="50" height="30" as="geometry" />
        </mxCell>
        <mxCell id="I0qs2FOB7y4ocK4thiar-40" value="" style="endArrow=classic;html=1;rounded=0;" edge="1" parent="1">
          <mxGeometry width="50" height="50" relative="1" as="geometry">
            <mxPoint x="864.5" y="319" as="sourcePoint" />
            <mxPoint x="864.5" y="349" as="targetPoint" />
          </mxGeometry>
        </mxCell>
        <mxCell id="I0qs2FOB7y4ocK4thiar-41" value="1" style="text;html=1;align=center;verticalAlign=middle;resizable=0;points=[];autosize=1;strokeColor=none;fillColor=none;" vertex="1" parent="1">
          <mxGeometry x="875.5" y="354" width="30" height="30" as="geometry" />
        </mxCell>
        <mxCell id="I0qs2FOB7y4ocK4thiar-42" value="tiene" style="text;html=1;align=center;verticalAlign=middle;resizable=0;points=[];autosize=1;strokeColor=none;fillColor=none;" vertex="1" parent="1">
          <mxGeometry x="895.5" y="319" width="50" height="30" as="geometry" />
        </mxCell>
        <mxCell id="I0qs2FOB7y4ocK4thiar-43" value="0...*" style="text;html=1;align=center;verticalAlign=middle;resizable=0;points=[];autosize=1;strokeColor=none;fillColor=none;" vertex="1" parent="1">
          <mxGeometry x="895.5" y="287" width="40" height="30" as="geometry" />
        </mxCell>
        <mxCell id="I0qs2FOB7y4ocK4thiar-44" value="" style="endArrow=classic;html=1;rounded=0;" edge="1" parent="1">
          <mxGeometry width="50" height="50" relative="1" as="geometry">
            <mxPoint x="945.5" y="349" as="sourcePoint" />
            <mxPoint x="945.5" y="319" as="targetPoint" />
          </mxGeometry>
        </mxCell>
        <mxCell id="I0qs2FOB7y4ocK4thiar-45" value="tiene" style="text;html=1;align=center;verticalAlign=middle;resizable=0;points=[];autosize=1;strokeColor=none;fillColor=none;" vertex="1" parent="1">
          <mxGeometry x="1009.5" y="229" width="50" height="30" as="geometry" />
        </mxCell>
        <mxCell id="I0qs2FOB7y4ocK4thiar-46" value="" style="endArrow=classic;html=1;rounded=0;" edge="1" parent="1">
          <mxGeometry width="50" height="50" relative="1" as="geometry">
            <mxPoint x="1053.5" y="228" as="sourcePoint" />
            <mxPoint x="1013.5" y="228" as="targetPoint" />
          </mxGeometry>
        </mxCell>
        <mxCell id="I0qs2FOB7y4ocK4thiar-47" value="1...*" style="text;html=1;align=center;verticalAlign=middle;resizable=0;points=[];autosize=1;strokeColor=none;fillColor=none;" vertex="1" parent="1">
          <mxGeometry x="960.5" y="229" width="40" height="30" as="geometry" />
        </mxCell>
        <mxCell id="I0qs2FOB7y4ocK4thiar-48" value="está" style="text;html=1;align=center;verticalAlign=middle;resizable=0;points=[];autosize=1;strokeColor=none;fillColor=none;" vertex="1" parent="1">
          <mxGeometry x="1009.5" y="259" width="50" height="30" as="geometry" />
        </mxCell>
        <mxCell id="I0qs2FOB7y4ocK4thiar-49" value="" style="endArrow=classic;html=1;rounded=0;entryX=0.99;entryY=1;entryDx=0;entryDy=0;entryPerimeter=0;" edge="1" parent="1">
          <mxGeometry width="50" height="50" relative="1" as="geometry">
            <mxPoint x="1013.9" y="287" as="sourcePoint" />
            <mxPoint x="1055.1" y="287" as="targetPoint" />
            <Array as="points" />
          </mxGeometry>
        </mxCell>
        <mxCell id="I0qs2FOB7y4ocK4thiar-50" value="1" style="text;html=1;align=center;verticalAlign=middle;resizable=0;points=[];autosize=1;strokeColor=none;fillColor=none;" vertex="1" parent="1">
          <mxGeometry x="1079.5" y="259" width="30" height="30" as="geometry" />
        </mxCell>
        <mxCell id="SFV9z4LlKNgFdaiAPFw7-1" style="edgeStyle=orthogonalEdgeStyle;rounded=0;orthogonalLoop=1;jettySize=auto;html=1;exitX=1;exitY=0.5;exitDx=0;exitDy=0;entryX=0;entryY=0.5;entryDx=0;entryDy=0;endArrow=none;endFill=0;" edge="1" parent="1" source="SFV9z4LlKNgFdaiAPFw7-26" target="SFV9z4LlKNgFdaiAPFw7-6">
          <mxGeometry relative="1" as="geometry">
            <mxPoint x="-575" y="-259.72" as="sourcePoint" />
          </mxGeometry>
        </mxCell>
        <mxCell id="SFV9z4LlKNgFdaiAPFw7-2" style="edgeStyle=orthogonalEdgeStyle;rounded=0;orthogonalLoop=1;jettySize=auto;html=1;exitX=0.5;exitY=0;exitDx=0;exitDy=0;entryX=0.5;entryY=1;entryDx=0;entryDy=0;endArrow=none;endFill=0;" edge="1" parent="1" source="SFV9z4LlKNgFdaiAPFw7-5" target="SFV9z4LlKNgFdaiAPFw7-7">
          <mxGeometry relative="1" as="geometry" />
        </mxCell>
        <mxCell id="SFV9z4LlKNgFdaiAPFw7-3" style="edgeStyle=orthogonalEdgeStyle;rounded=0;orthogonalLoop=1;jettySize=auto;html=1;exitX=0;exitY=0.5;exitDx=0;exitDy=0;entryX=1;entryY=0.5;entryDx=0;entryDy=0;" edge="1" parent="1" source="SFV9z4LlKNgFdaiAPFw7-5" target="SFV9z4LlKNgFdaiAPFw7-20">
          <mxGeometry relative="1" as="geometry" />
        </mxCell>
        <mxCell id="SFV9z4LlKNgFdaiAPFw7-4" style="edgeStyle=orthogonalEdgeStyle;rounded=0;orthogonalLoop=1;jettySize=auto;html=1;exitX=1;exitY=0.5;exitDx=0;exitDy=0;entryX=0;entryY=0.5;entryDx=0;entryDy=0;endArrow=none;endFill=0;" edge="1" parent="1" source="SFV9z4LlKNgFdaiAPFw7-5" target="SFV9z4LlKNgFdaiAPFw7-26">
          <mxGeometry relative="1" as="geometry" />
        </mxCell>
        <mxCell id="SFV9z4LlKNgFdaiAPFw7-5" value="Estadistica" style="rounded=0;whiteSpace=wrap;html=1;" vertex="1" parent="1">
          <mxGeometry x="-970" y="-291.72" width="120" height="60" as="geometry" />
        </mxCell>
        <mxCell id="720mcYWVK2-KUbojy9Y--3" style="edgeStyle=orthogonalEdgeStyle;rounded=0;orthogonalLoop=1;jettySize=auto;html=1;exitX=1;exitY=0.5;exitDx=0;exitDy=0;entryX=0;entryY=0.5;entryDx=0;entryDy=0;strokeWidth=10;endArrow=none;endFill=0;strokeColor=#A20025;" edge="1" parent="1" source="SFV9z4LlKNgFdaiAPFw7-6" target="8DekjPvpLVKMl7ppozE_-3">
          <mxGeometry relative="1" as="geometry" />
        </mxCell>
        <mxCell id="SFV9z4LlKNgFdaiAPFw7-6" value="EstadisticasReservas" style="rounded=0;whiteSpace=wrap;html=1;fillColor=#A20025;strokeColor=#6F0000;fontColor=#ffffff;" vertex="1" parent="1">
          <mxGeometry x="-410" y="-291.72" width="120" height="60" as="geometry" />
        </mxCell>
        <mxCell id="SFV9z4LlKNgFdaiAPFw7-7" value="TipoEstadistica" style="rounded=0;whiteSpace=wrap;html=1;" vertex="1" parent="1">
          <mxGeometry x="-970" y="-451.72" width="120" height="60" as="geometry" />
        </mxCell>
        <mxCell id="SFV9z4LlKNgFdaiAPFw7-8" value="tiene" style="text;html=1;align=center;verticalAlign=middle;resizable=0;points=[];autosize=1;strokeColor=none;fillColor=none;" vertex="1" parent="1">
          <mxGeometry x="-515" y="-255.72" width="50" height="30" as="geometry" />
        </mxCell>
        <mxCell id="SFV9z4LlKNgFdaiAPFw7-9" value="1...*" style="text;html=1;align=center;verticalAlign=middle;resizable=0;points=[];autosize=1;strokeColor=none;fillColor=none;" vertex="1" parent="1">
          <mxGeometry x="-450" y="-255.72" width="40" height="30" as="geometry" />
        </mxCell>
        <mxCell id="SFV9z4LlKNgFdaiAPFw7-10" value="" style="endArrow=classic;html=1;rounded=0;" edge="1" parent="1">
          <mxGeometry width="50" height="50" relative="1" as="geometry">
            <mxPoint x="-510" y="-225.72" as="sourcePoint" />
            <mxPoint x="-470" y="-225.72" as="targetPoint" />
          </mxGeometry>
        </mxCell>
        <mxCell id="SFV9z4LlKNgFdaiAPFw7-11" value="está" style="text;html=1;align=center;verticalAlign=middle;resizable=0;points=[];autosize=1;strokeColor=none;fillColor=none;" vertex="1" parent="1">
          <mxGeometry x="-515" y="-289.72" width="50" height="30" as="geometry" />
        </mxCell>
        <mxCell id="SFV9z4LlKNgFdaiAPFw7-12" value="" style="endArrow=classic;html=1;rounded=0;entryX=0;entryY=-0.08;entryDx=0;entryDy=0;entryPerimeter=0;" edge="1" parent="1">
          <mxGeometry width="50" height="50" relative="1" as="geometry">
            <mxPoint x="-475" y="-290.72" as="sourcePoint" />
            <mxPoint x="-515" y="-290.72" as="targetPoint" />
          </mxGeometry>
        </mxCell>
        <mxCell id="SFV9z4LlKNgFdaiAPFw7-13" value="1" style="text;html=1;align=center;verticalAlign=middle;resizable=0;points=[];autosize=1;strokeColor=none;fillColor=none;" vertex="1" parent="1">
          <mxGeometry x="-570" y="-291.72" width="30" height="30" as="geometry" />
        </mxCell>
        <mxCell id="SFV9z4LlKNgFdaiAPFw7-14" value="tiene" style="text;html=1;align=center;verticalAlign=middle;resizable=0;points=[];autosize=1;strokeColor=none;fillColor=none;" vertex="1" parent="1">
          <mxGeometry x="-910" y="-353.72" width="50" height="30" as="geometry" />
        </mxCell>
        <mxCell id="SFV9z4LlKNgFdaiAPFw7-15" value="" style="endArrow=classic;html=1;rounded=0;" edge="1" parent="1">
          <mxGeometry width="50" height="50" relative="1" as="geometry">
            <mxPoint x="-860" y="-323.72" as="sourcePoint" />
            <mxPoint x="-860" y="-353.72" as="targetPoint" />
          </mxGeometry>
        </mxCell>
        <mxCell id="SFV9z4LlKNgFdaiAPFw7-16" value="1" style="text;html=1;align=center;verticalAlign=middle;resizable=0;points=[];autosize=1;strokeColor=none;fillColor=none;" vertex="1" parent="1">
          <mxGeometry x="-910" y="-391.72" width="30" height="30" as="geometry" />
        </mxCell>
        <mxCell id="SFV9z4LlKNgFdaiAPFw7-17" value="pertenece" style="text;html=1;align=center;verticalAlign=middle;resizable=0;points=[];autosize=1;strokeColor=none;fillColor=none;" vertex="1" parent="1">
          <mxGeometry x="-985" y="-353.72" width="80" height="30" as="geometry" />
        </mxCell>
        <mxCell id="SFV9z4LlKNgFdaiAPFw7-18" value="" style="endArrow=classic;html=1;rounded=0;" edge="1" parent="1">
          <mxGeometry width="50" height="50" relative="1" as="geometry">
            <mxPoint x="-980" y="-353.72" as="sourcePoint" />
            <mxPoint x="-980" y="-323.72" as="targetPoint" />
          </mxGeometry>
        </mxCell>
        <mxCell id="SFV9z4LlKNgFdaiAPFw7-19" value="1...*" style="text;html=1;align=center;verticalAlign=middle;resizable=0;points=[];autosize=1;strokeColor=none;fillColor=none;" vertex="1" parent="1">
          <mxGeometry x="-944" y="-323.72" width="40" height="30" as="geometry" />
        </mxCell>
        <mxCell id="SFV9z4LlKNgFdaiAPFw7-20" value="Grafico" style="rounded=0;whiteSpace=wrap;html=1;" vertex="1" parent="1">
          <mxGeometry x="-1250" y="-291.72" width="120" height="60" as="geometry" />
        </mxCell>
        <mxCell id="SFV9z4LlKNgFdaiAPFw7-21" value="" style="endArrow=classic;html=1;rounded=0;entryX=0;entryY=-0.08;entryDx=0;entryDy=0;entryPerimeter=0;" edge="1" parent="1">
          <mxGeometry width="50" height="50" relative="1" as="geometry">
            <mxPoint x="-1030" y="-294.72" as="sourcePoint" />
            <mxPoint x="-1070" y="-294.72" as="targetPoint" />
          </mxGeometry>
        </mxCell>
        <mxCell id="SFV9z4LlKNgFdaiAPFw7-22" value="tiene" style="text;html=1;align=center;verticalAlign=middle;resizable=0;points=[];autosize=1;strokeColor=none;fillColor=none;" vertex="1" parent="1">
          <mxGeometry x="-1070" y="-291.72" width="50" height="30" as="geometry" />
        </mxCell>
        <mxCell id="SFV9z4LlKNgFdaiAPFw7-23" value="0...*" style="text;html=1;align=center;verticalAlign=middle;resizable=0;points=[];autosize=1;strokeColor=none;fillColor=none;" vertex="1" parent="1">
          <mxGeometry x="-1130" y="-293.72" width="40" height="30" as="geometry" />
        </mxCell>
        <mxCell id="SFV9z4LlKNgFdaiAPFw7-24" value="pertenece" style="text;html=1;align=center;verticalAlign=middle;resizable=0;points=[];autosize=1;strokeColor=none;fillColor=none;" vertex="1" parent="1">
          <mxGeometry x="-1085" y="-257.72" width="80" height="30" as="geometry" />
        </mxCell>
        <mxCell id="SFV9z4LlKNgFdaiAPFw7-25" value="" style="endArrow=classic;html=1;rounded=0;" edge="1" parent="1">
          <mxGeometry width="50" height="50" relative="1" as="geometry">
            <mxPoint x="-1065" y="-227.72" as="sourcePoint" />
            <mxPoint x="-1025" y="-227.72" as="targetPoint" />
          </mxGeometry>
        </mxCell>
        <mxCell id="SFV9z4LlKNgFdaiAPFw7-26" value="Metrica" style="rounded=0;whiteSpace=wrap;html=1;" vertex="1" parent="1">
          <mxGeometry x="-690" y="-291.72" width="120" height="60" as="geometry" />
        </mxCell>
        <mxCell id="SFV9z4LlKNgFdaiAPFw7-27" value="tiene" style="text;html=1;align=center;verticalAlign=middle;resizable=0;points=[];autosize=1;strokeColor=none;fillColor=none;" vertex="1" parent="1">
          <mxGeometry x="-800" y="-259.72" width="50" height="30" as="geometry" />
        </mxCell>
        <mxCell id="SFV9z4LlKNgFdaiAPFw7-28" value="" style="endArrow=classic;html=1;rounded=0;" edge="1" parent="1">
          <mxGeometry width="50" height="50" relative="1" as="geometry">
            <mxPoint x="-795" y="-228.72" as="sourcePoint" />
            <mxPoint x="-755" y="-228.72" as="targetPoint" />
          </mxGeometry>
        </mxCell>
        <mxCell id="SFV9z4LlKNgFdaiAPFw7-29" value="1...*" style="text;html=1;align=center;verticalAlign=middle;resizable=0;points=[];autosize=1;strokeColor=none;fillColor=none;" vertex="1" parent="1">
          <mxGeometry x="-730" y="-261.72" width="40" height="30" as="geometry" />
        </mxCell>
        <mxCell id="SFV9z4LlKNgFdaiAPFw7-30" value="pertenece" style="text;html=1;align=center;verticalAlign=middle;resizable=0;points=[];autosize=1;strokeColor=none;fillColor=none;" vertex="1" parent="1">
          <mxGeometry x="-815" y="-291.72" width="80" height="30" as="geometry" />
        </mxCell>
        <mxCell id="SFV9z4LlKNgFdaiAPFw7-31" value="" style="endArrow=classic;html=1;rounded=0;entryX=0;entryY=-0.08;entryDx=0;entryDy=0;entryPerimeter=0;" edge="1" parent="1">
          <mxGeometry width="50" height="50" relative="1" as="geometry">
            <mxPoint x="-755" y="-294.72" as="sourcePoint" />
            <mxPoint x="-795" y="-294.72" as="targetPoint" />
          </mxGeometry>
        </mxCell>
        <mxCell id="SFV9z4LlKNgFdaiAPFw7-32" value="1" style="text;html=1;align=center;verticalAlign=middle;resizable=0;points=[];autosize=1;strokeColor=none;fillColor=none;" vertex="1" parent="1">
          <mxGeometry x="-850" y="-291.72" width="30" height="30" as="geometry" />
        </mxCell>
        <mxCell id="720mcYWVK2-KUbojy9Y--2" value="Estadistica" style="text;html=1;align=center;verticalAlign=middle;resizable=0;points=[];autosize=1;strokeColor=none;fillColor=none;fontStyle=1;fontSize=14;" vertex="1" parent="1">
          <mxGeometry x="-802.5" y="-507.28999999999996" width="100" height="30" as="geometry" />
        </mxCell>
      </root>
    </mxGraphModel>
  </diagram>
  <diagram id="fcIJlQRBQEHlBk0Odgq-" name="ContextMapping V2">
    <mxGraphModel dx="2450" dy="1726" grid="1" gridSize="10" guides="1" tooltips="1" connect="1" arrows="1" fold="1" page="1" pageScale="1" pageWidth="850" pageHeight="1100" math="0" shadow="0">
      <root>
        <mxCell id="0" />
        <mxCell id="1" parent="0" />
        <mxCell id="8mwYhBDGCQZVY-usBYkN-1" value="" style="rounded=1;whiteSpace=wrap;html=1;" parent="1" vertex="1">
          <mxGeometry x="615" y="230" width="210" height="176" as="geometry" />
        </mxCell>
        <mxCell id="8mwYhBDGCQZVY-usBYkN-2" value="" style="rounded=1;whiteSpace=wrap;html=1;" parent="1" vertex="1">
          <mxGeometry x="625" y="478" width="210" height="230" as="geometry" />
        </mxCell>
        <mxCell id="8mwYhBDGCQZVY-usBYkN-3" value="" style="rounded=1;whiteSpace=wrap;html=1;" parent="1" vertex="1">
          <mxGeometry x="-280" y="-63" width="340" height="200" as="geometry" />
        </mxCell>
        <mxCell id="8mwYhBDGCQZVY-usBYkN-4" value="" style="rounded=1;whiteSpace=wrap;html=1;" parent="1" vertex="1">
          <mxGeometry x="190" y="510" width="260" height="200" as="geometry" />
        </mxCell>
        <mxCell id="8mwYhBDGCQZVY-usBYkN-5" value="" style="rounded=1;whiteSpace=wrap;html=1;" parent="1" vertex="1">
          <mxGeometry x="615" y="20" width="205" height="110" as="geometry" />
        </mxCell>
        <mxCell id="8mwYhBDGCQZVY-usBYkN-6" value="" style="rounded=1;whiteSpace=wrap;html=1;" parent="1" vertex="1">
          <mxGeometry x="140" y="-63" width="400" height="270" as="geometry" />
        </mxCell>
        <mxCell id="8mwYhBDGCQZVY-usBYkN-7" value="" style="rounded=1;whiteSpace=wrap;html=1;" parent="1" vertex="1">
          <mxGeometry x="60" y="230" width="450" height="230" as="geometry" />
        </mxCell>
        <mxCell id="8mwYhBDGCQZVY-usBYkN-9" value="Menu" style="text;html=1;align=center;verticalAlign=middle;resizable=0;points=[];autosize=1;strokeColor=none;fillColor=none;" parent="1" vertex="1">
          <mxGeometry x="295" y="510" width="50" height="30" as="geometry" />
        </mxCell>
        <mxCell id="8mwYhBDGCQZVY-usBYkN-26" style="edgeStyle=orthogonalEdgeStyle;rounded=0;orthogonalLoop=1;jettySize=auto;html=1;exitX=0.5;exitY=1;exitDx=0;exitDy=0;entryX=0;entryY=0.5;entryDx=0;entryDy=0;fillColor=#b0e3e6;strokeColor=#0e8088;strokeWidth=10;endArrow=none;endFill=0;" parent="1" source="8mwYhBDGCQZVY-usBYkN-27" target="8mwYhBDGCQZVY-usBYkN-150" edge="1">
          <mxGeometry relative="1" as="geometry" />
        </mxCell>
        <mxCell id="8mwYhBDGCQZVY-usBYkN-27" value="ClienteMenu" style="rounded=0;whiteSpace=wrap;html=1;fillColor=#b0e3e6;strokeColor=#0e8088;" parent="1" vertex="1">
          <mxGeometry x="350" y="360" width="120" height="60" as="geometry" />
        </mxCell>
        <mxCell id="8mwYhBDGCQZVY-usBYkN-28" value="CorreoDestinatario" style="rounded=0;whiteSpace=wrap;html=1;fillColor=#6A00FF;fontColor=#ffffff;strokeColor=#3700CC;" parent="1" vertex="1">
          <mxGeometry x="130" y="360" width="120" height="60" as="geometry" />
        </mxCell>
        <mxCell id="8mwYhBDGCQZVY-usBYkN-41" style="edgeStyle=orthogonalEdgeStyle;rounded=0;orthogonalLoop=1;jettySize=auto;html=1;exitX=0.5;exitY=0;exitDx=0;exitDy=0;entryX=0.5;entryY=-0.2;entryDx=0;entryDy=0;entryPerimeter=0;endArrow=none;endFill=0;fillColor=#d5e8d4;strokeColor=#82b366;strokeWidth=7;" parent="1" target="8mwYhBDGCQZVY-usBYkN-88" edge="1">
          <mxGeometry relative="1" as="geometry">
            <mxPoint x="285" y="230" as="sourcePoint" />
            <Array as="points">
              <mxPoint x="285" y="220" />
              <mxPoint x="240" y="220" />
            </Array>
          </mxGeometry>
        </mxCell>
        <mxCell id="8mwYhBDGCQZVY-usBYkN-42" value="InfoCliente" style="rounded=0;whiteSpace=wrap;html=1;fillColor=#d5e8d4;strokeColor=#82b366;" parent="1" vertex="1">
          <mxGeometry x="225" y="280" width="120" height="60" as="geometry" />
        </mxCell>
        <mxCell id="8mwYhBDGCQZVY-usBYkN-56" value="NotificacionReserva" style="rounded=0;whiteSpace=wrap;html=1;fillColor=#e1d5e7;strokeColor=#9673a6;" parent="1" vertex="1">
          <mxGeometry x="180" y="17" width="120" height="60" as="geometry" />
        </mxCell>
        <mxCell id="8mwYhBDGCQZVY-usBYkN-64" style="edgeStyle=orthogonalEdgeStyle;rounded=0;orthogonalLoop=1;jettySize=auto;html=1;exitX=1;exitY=0.5;exitDx=0;exitDy=0;entryX=0;entryY=0.5;entryDx=0;entryDy=0;strokeWidth=10;endArrow=none;endFill=0;fillColor=#dae8fc;strokeColor=#6c8ebf;" parent="1" source="8mwYhBDGCQZVY-usBYkN-65" target="8mwYhBDGCQZVY-usBYkN-93" edge="1">
          <mxGeometry relative="1" as="geometry" />
        </mxCell>
        <mxCell id="8mwYhBDGCQZVY-usBYkN-65" value="ReservaMesa" style="rounded=0;whiteSpace=wrap;html=1;fillColor=#dae8fc;strokeColor=#6c8ebf;" parent="1" vertex="1">
          <mxGeometry x="360" y="57" width="120" height="60" as="geometry" />
        </mxCell>
        <mxCell id="8mwYhBDGCQZVY-usBYkN-81" value="InfoCliente" style="rounded=0;whiteSpace=wrap;html=1;fillColor=#d5e8d4;strokeColor=#82b366;" parent="1" vertex="1">
          <mxGeometry x="180" y="117" width="120" height="60" as="geometry" />
        </mxCell>
        <mxCell id="8mwYhBDGCQZVY-usBYkN-88" value="(cliente)" style="text;html=1;align=center;verticalAlign=middle;resizable=0;points=[];autosize=1;strokeColor=none;fillColor=none;" parent="1" vertex="1">
          <mxGeometry x="205" y="177" width="70" height="30" as="geometry" />
        </mxCell>
        <mxCell id="8mwYhBDGCQZVY-usBYkN-89" value="Reservas" style="text;html=1;align=center;verticalAlign=middle;resizable=0;points=[];autosize=1;strokeColor=none;fillColor=none;" parent="1" vertex="1">
          <mxGeometry x="301.75" y="-53" width="70" height="30" as="geometry" />
        </mxCell>
        <mxCell id="8mwYhBDGCQZVY-usBYkN-90" value="(Mesa)" style="text;html=1;align=center;verticalAlign=middle;resizable=0;points=[];autosize=1;strokeColor=none;fillColor=none;" parent="1" vertex="1">
          <mxGeometry x="390" y="117" width="60" height="30" as="geometry" />
        </mxCell>
        <mxCell id="8mwYhBDGCQZVY-usBYkN-93" value="Mesa" style="rounded=0;whiteSpace=wrap;html=1;fillColor=#dae8fc;strokeColor=#6c8ebf;" parent="1" vertex="1">
          <mxGeometry x="665" y="56.5" width="120" height="60" as="geometry" />
        </mxCell>
        <mxCell id="8mwYhBDGCQZVY-usBYkN-115" value="Mesa" style="text;html=1;align=center;verticalAlign=middle;resizable=0;points=[];autosize=1;strokeColor=none;fillColor=none;" parent="1" vertex="1">
          <mxGeometry x="700" y="27" width="50" height="30" as="geometry" />
        </mxCell>
        <mxCell id="omWHWJGRbXP6K_pSLp4k-3" style="edgeStyle=orthogonalEdgeStyle;rounded=0;orthogonalLoop=1;jettySize=auto;html=1;exitX=1;exitY=0.5;exitDx=0;exitDy=0;entryX=0;entryY=0.5;entryDx=0;entryDy=0;fillColor=#e1d5e7;strokeColor=#9673a6;strokeWidth=10;endArrow=none;endFill=0;" parent="1" source="8mwYhBDGCQZVY-usBYkN-117" target="8mwYhBDGCQZVY-usBYkN-56" edge="1">
          <mxGeometry relative="1" as="geometry" />
        </mxCell>
        <mxCell id="8mwYhBDGCQZVY-usBYkN-117" value="Notificacion" style="rounded=0;whiteSpace=wrap;html=1;fillColor=#e1d5e7;strokeColor=#9673a6;" parent="1" vertex="1">
          <mxGeometry x="-100" y="17" width="120" height="60" as="geometry" />
        </mxCell>
        <mxCell id="omWHWJGRbXP6K_pSLp4k-4" style="edgeStyle=orthogonalEdgeStyle;rounded=0;orthogonalLoop=1;jettySize=auto;html=1;exitX=0.5;exitY=1;exitDx=0;exitDy=0;entryX=0;entryY=0.5;entryDx=0;entryDy=0;strokeWidth=10;endArrow=none;endFill=0;strokeColor=#6A00FF;" parent="1" source="8mwYhBDGCQZVY-usBYkN-120" target="8mwYhBDGCQZVY-usBYkN-28" edge="1">
          <mxGeometry relative="1" as="geometry" />
        </mxCell>
        <mxCell id="8mwYhBDGCQZVY-usBYkN-120" value="correoDestinatario" style="rounded=0;whiteSpace=wrap;html=1;fillColor=#6A00FF;strokeColor=#A50040;fontColor=#ffffff;" parent="1" vertex="1">
          <mxGeometry x="-250" y="17" width="120" height="60" as="geometry" />
        </mxCell>
        <mxCell id="8mwYhBDGCQZVY-usBYkN-150" value="ClienteMenu" style="rounded=0;whiteSpace=wrap;html=1;fillColor=#b0e3e6;strokeColor=#0e8088;" parent="1" vertex="1">
          <mxGeometry x="270" y="540" width="120" height="60" as="geometry" />
        </mxCell>
        <mxCell id="omWHWJGRbXP6K_pSLp4k-1" style="edgeStyle=orthogonalEdgeStyle;rounded=0;orthogonalLoop=1;jettySize=auto;html=1;exitX=0.5;exitY=1;exitDx=0;exitDy=0;entryX=0.5;entryY=1;entryDx=0;entryDy=0;endArrow=none;endFill=0;strokeWidth=10;fillColor=#f8cecc;strokeColor=#D68D85;" parent="1" source="8mwYhBDGCQZVY-usBYkN-153" target="8mwYhBDGCQZVY-usBYkN-184" edge="1">
          <mxGeometry relative="1" as="geometry" />
        </mxCell>
        <mxCell id="8mwYhBDGCQZVY-usBYkN-153" value="Menu" style="rounded=0;whiteSpace=wrap;html=1;fillColor=#ffcccc;strokeColor=#36393d;" parent="1" vertex="1">
          <mxGeometry x="270" y="610" width="120" height="60" as="geometry" />
        </mxCell>
        <mxCell id="8mwYhBDGCQZVY-usBYkN-171" value="DescripcionProducto" style="rounded=0;whiteSpace=wrap;html=1;fillColor=#70FF7A;" parent="1" vertex="1">
          <mxGeometry x="665" y="524" width="120" height="60" as="geometry" />
        </mxCell>
        <mxCell id="8mwYhBDGCQZVY-usBYkN-184" value="Menú" style="rounded=0;whiteSpace=wrap;html=1;fillColor=#ffcccc;strokeColor=#36393d;" parent="1" vertex="1">
          <mxGeometry x="665" y="600" width="120" height="60" as="geometry" />
        </mxCell>
        <mxCell id="8mwYhBDGCQZVY-usBYkN-195" style="edgeStyle=orthogonalEdgeStyle;rounded=0;orthogonalLoop=1;jettySize=auto;html=1;exitX=0.5;exitY=1;exitDx=0;exitDy=0;entryX=0.5;entryY=0;entryDx=0;entryDy=0;fillColor=#60a917;strokeColor=#70FF7A;strokeWidth=10;endArrow=none;endFill=0;" parent="1" source="8mwYhBDGCQZVY-usBYkN-196" target="8mwYhBDGCQZVY-usBYkN-171" edge="1">
          <mxGeometry relative="1" as="geometry" />
        </mxCell>
        <mxCell id="8mwYhBDGCQZVY-usBYkN-196" value="DescripcionProducto" style="rounded=0;whiteSpace=wrap;html=1;fillColor=#70FF7A;strokeColor=#9673a6;" parent="1" vertex="1">
          <mxGeometry x="665" y="295" width="120" height="60" as="geometry" />
        </mxCell>
        <mxCell id="8mwYhBDGCQZVY-usBYkN-210" value="DescripcionProducto" style="text;whiteSpace=wrap;" parent="1" vertex="1">
          <mxGeometry x="665" y="236" width="140" height="40" as="geometry" />
        </mxCell>
        <mxCell id="omWHWJGRbXP6K_pSLp4k-2" value="" style="edgeStyle=orthogonalEdgeStyle;rounded=0;orthogonalLoop=1;jettySize=auto;html=1;exitX=0.5;exitY=0;exitDx=0;exitDy=0;entryX=0.5;entryY=-0.2;entryDx=0;entryDy=0;entryPerimeter=0;endArrow=none;endFill=0;fillColor=#d5e8d4;strokeColor=#82b366;strokeWidth=7;" parent="1" source="8mwYhBDGCQZVY-usBYkN-42" edge="1">
          <mxGeometry relative="1" as="geometry">
            <mxPoint x="285" y="280" as="sourcePoint" />
            <mxPoint x="285" y="224" as="targetPoint" />
          </mxGeometry>
        </mxCell>
        <mxCell id="omWHWJGRbXP6K_pSLp4k-5" value="Notificacion" style="text;html=1;align=center;verticalAlign=middle;resizable=0;points=[];autosize=1;strokeColor=none;fillColor=none;" parent="1" vertex="1">
          <mxGeometry x="-155" y="-53" width="90" height="30" as="geometry" />
        </mxCell>
        <mxCell id="omWHWJGRbXP6K_pSLp4k-6" value="Producto" style="text;html=1;align=center;verticalAlign=middle;resizable=0;points=[];autosize=1;strokeColor=none;fillColor=none;" parent="1" vertex="1">
          <mxGeometry x="690" y="489" width="70" height="30" as="geometry" />
        </mxCell>
        <mxCell id="plafzuuxjwgvepcTXX94-1" value="(cliente)" style="text;html=1;align=center;verticalAlign=middle;resizable=0;points=[];autosize=1;strokeColor=none;fillColor=none;" parent="1" vertex="1">
          <mxGeometry x="-250" y="77" width="70" height="30" as="geometry" />
        </mxCell>
        <mxCell id="plafzuuxjwgvepcTXX94-2" value="(cliente)" style="text;html=1;align=center;verticalAlign=middle;resizable=0;points=[];autosize=1;strokeColor=none;fillColor=none;" parent="1" vertex="1">
          <mxGeometry x="300" y="584" width="70" height="30" as="geometry" />
        </mxCell>
        <mxCell id="NWo8mO-I0zlkY1uHASJx-1" value="(Notificacion)" style="text;html=1;align=center;verticalAlign=middle;resizable=0;points=[];autosize=1;strokeColor=none;fillColor=none;" parent="1" vertex="1">
          <mxGeometry x="145" y="420" width="90" height="30" as="geometry" />
        </mxCell>
        <mxCell id="viPQP2-bzCGwETcKtucq-1" value="(Notificacion)" style="text;html=1;align=center;verticalAlign=middle;resizable=0;points=[];autosize=1;strokeColor=none;fillColor=none;" parent="1" vertex="1">
          <mxGeometry x="195" y="77" width="90" height="30" as="geometry" />
        </mxCell>
        <mxCell id="viPQP2-bzCGwETcKtucq-2" value="Clientes" style="text;html=1;align=center;verticalAlign=middle;resizable=0;points=[];autosize=1;strokeColor=none;fillColor=none;" parent="1" vertex="1">
          <mxGeometry x="250" y="241" width="70" height="30" as="geometry" />
        </mxCell>
        <mxCell id="viPQP2-bzCGwETcKtucq-3" value="(Producto)" style="text;html=1;align=center;verticalAlign=middle;resizable=0;points=[];autosize=1;strokeColor=none;fillColor=none;" parent="1" vertex="1">
          <mxGeometry x="685" y="360" width="80" height="30" as="geometry" />
        </mxCell>
      </root>
    </mxGraphModel>
  </diagram>
  <diagram id="DHKLV-lPJ9BWQZ9zyOXv" name="Flujo Eventos Clientes">
    <mxGraphModel dx="880" dy="438" grid="1" gridSize="10" guides="1" tooltips="1" connect="1" arrows="1" fold="1" page="1" pageScale="1" pageWidth="850" pageHeight="1100" math="0" shadow="0">
      <root>
        <mxCell id="0" />
        <mxCell id="1" parent="0" />
        <mxCell id="sTBFGD43_teYyqH9OqWt-4" style="edgeStyle=orthogonalEdgeStyle;rounded=0;orthogonalLoop=1;jettySize=auto;html=1;exitX=1;exitY=0.5;exitDx=0;exitDy=0;entryX=0;entryY=0.5;entryDx=0;entryDy=0;dashed=1;" edge="1" parent="1" source="NGkAkxx7_jKY19iCGDNl-5" target="NGkAkxx7_jKY19iCGDNl-30">
          <mxGeometry relative="1" as="geometry" />
        </mxCell>
        <mxCell id="UiMCyxnZY6p_EnHxqv_B-1" style="edgeStyle=orthogonalEdgeStyle;rounded=0;orthogonalLoop=1;jettySize=auto;html=1;exitX=1;exitY=0.5;exitDx=0;exitDy=0;entryX=0;entryY=0.5;entryDx=0;entryDy=0;dashed=1;" edge="1" parent="1" source="NGkAkxx7_jKY19iCGDNl-5" target="NGkAkxx7_jKY19iCGDNl-18">
          <mxGeometry relative="1" as="geometry">
            <Array as="points">
              <mxPoint x="470" y="200" />
              <mxPoint x="500" y="200" />
              <mxPoint x="500" y="270" />
            </Array>
          </mxGeometry>
        </mxCell>
        <mxCell id="NGkAkxx7_jKY19iCGDNl-5" value="Cliente" style="rounded=0;whiteSpace=wrap;html=1;" vertex="1" parent="1">
          <mxGeometry x="350" y="160" width="120" height="60" as="geometry" />
        </mxCell>
        <mxCell id="sTBFGD43_teYyqH9OqWt-3" style="edgeStyle=orthogonalEdgeStyle;rounded=0;orthogonalLoop=1;jettySize=auto;html=1;exitX=1;exitY=0.5;exitDx=0;exitDy=0;entryX=0;entryY=0.5;entryDx=0;entryDy=0;dashed=1;" edge="1" parent="1" source="NGkAkxx7_jKY19iCGDNl-6" target="NGkAkxx7_jKY19iCGDNl-5">
          <mxGeometry relative="1" as="geometry" />
        </mxCell>
        <mxCell id="NGkAkxx7_jKY19iCGDNl-6" value="TipoIdentificacion" style="rounded=0;whiteSpace=wrap;html=1;" vertex="1" parent="1">
          <mxGeometry x="150" y="160" width="120" height="60" as="geometry" />
        </mxCell>
        <mxCell id="UiMCyxnZY6p_EnHxqv_B-2" style="edgeStyle=orthogonalEdgeStyle;rounded=0;orthogonalLoop=1;jettySize=auto;html=1;exitX=1;exitY=0.5;exitDx=0;exitDy=0;entryX=0;entryY=0.75;entryDx=0;entryDy=0;dashed=1;" edge="1" parent="1" source="NGkAkxx7_jKY19iCGDNl-10" target="NGkAkxx7_jKY19iCGDNl-30">
          <mxGeometry relative="1" as="geometry">
            <Array as="points">
              <mxPoint x="480" y="270" />
              <mxPoint x="480" y="210" />
              <mxPoint x="540" y="210" />
            </Array>
          </mxGeometry>
        </mxCell>
        <mxCell id="NGkAkxx7_jKY19iCGDNl-10" value="NumeroCelular" style="rounded=0;whiteSpace=wrap;html=1;" vertex="1" parent="1">
          <mxGeometry x="150" y="240" width="120" height="60" as="geometry" />
        </mxCell>
        <mxCell id="NGkAkxx7_jKY19iCGDNl-17" value="ClienteMenu" style="rounded=0;whiteSpace=wrap;html=1;fillColor=#b0e3e6;strokeColor=#0e8088;" vertex="1" parent="1">
          <mxGeometry x="150" y="320" width="120" height="60" as="geometry" />
        </mxCell>
        <mxCell id="NGkAkxx7_jKY19iCGDNl-18" value="CorreoDestinatario" style="rounded=0;whiteSpace=wrap;html=1;fillColor=#6a00ff;fontColor=#ffffff;strokeColor=#3700CC;" vertex="1" parent="1">
          <mxGeometry x="540" y="240" width="120" height="60" as="geometry" />
        </mxCell>
        <mxCell id="NGkAkxx7_jKY19iCGDNl-30" value="InfoCliente" style="rounded=0;whiteSpace=wrap;html=1;fillColor=#d5e8d4;strokeColor=#82b366;" vertex="1" parent="1">
          <mxGeometry x="540" y="160" width="120" height="60" as="geometry" />
        </mxCell>
        <mxCell id="NGkAkxx7_jKY19iCGDNl-42" value="&lt;b&gt;&lt;font style=&quot;font-size: 30px;&quot;&gt;1&lt;/font&gt;&lt;/b&gt;" style="ellipse;whiteSpace=wrap;html=1;" vertex="1" parent="1">
          <mxGeometry x="170" y="50" width="80" height="70" as="geometry" />
        </mxCell>
        <mxCell id="NGkAkxx7_jKY19iCGDNl-43" value="&lt;b&gt;&lt;font style=&quot;font-size: 30px;&quot;&gt;2&lt;/font&gt;&lt;/b&gt;" style="ellipse;whiteSpace=wrap;html=1;" vertex="1" parent="1">
          <mxGeometry x="370" y="50" width="80" height="70" as="geometry" />
        </mxCell>
        <mxCell id="NGkAkxx7_jKY19iCGDNl-44" value="&lt;b&gt;&lt;font style=&quot;font-size: 30px;&quot;&gt;3&lt;/font&gt;&lt;/b&gt;" style="ellipse;whiteSpace=wrap;html=1;" vertex="1" parent="1">
          <mxGeometry x="560" y="50" width="80" height="70" as="geometry" />
        </mxCell>
      </root>
    </mxGraphModel>
  </diagram>
  <diagram id="NyxQiG6okRirZQGNKUid" name="Flujo Eventos Productos">
    <mxGraphModel dx="880" dy="438" grid="1" gridSize="10" guides="1" tooltips="1" connect="1" arrows="1" fold="1" page="1" pageScale="1" pageWidth="850" pageHeight="1100" math="0" shadow="0">
      <root>
        <mxCell id="0" />
        <mxCell id="1" parent="0" />
        <mxCell id="UCT6diTIPRACmSJRHeNZ-1" value="Producto" style="rounded=0;whiteSpace=wrap;html=1;" vertex="1" parent="1">
          <mxGeometry x="350" y="151" width="120" height="60" as="geometry" />
        </mxCell>
        <mxCell id="UCT6diTIPRACmSJRHeNZ-3" value="Subcategroría" style="rounded=0;whiteSpace=wrap;html=1;" vertex="1" parent="1">
          <mxGeometry x="150" y="151" width="120" height="60" as="geometry" />
        </mxCell>
        <mxCell id="UCT6diTIPRACmSJRHeNZ-12" value="Categoría" style="rounded=0;whiteSpace=wrap;html=1;" vertex="1" parent="1">
          <mxGeometry x="350" y="240" width="120" height="60" as="geometry" />
        </mxCell>
        <mxCell id="UCT6diTIPRACmSJRHeNZ-19" value="Menú" style="rounded=0;whiteSpace=wrap;html=1;fillColor=#FFCCCC;strokeColor=#886666;" vertex="1" parent="1">
          <mxGeometry x="150" y="240" width="120" height="60" as="geometry" />
        </mxCell>
        <mxCell id="nU3rQ1yhPtoEmgwCQttI-1" value="&lt;b&gt;&lt;font style=&quot;font-size: 30px;&quot;&gt;1&lt;/font&gt;&lt;/b&gt;" style="ellipse;whiteSpace=wrap;html=1;" vertex="1" parent="1">
          <mxGeometry x="170" y="50" width="80" height="70" as="geometry" />
        </mxCell>
        <mxCell id="nU3rQ1yhPtoEmgwCQttI-2" value="&lt;b&gt;&lt;font style=&quot;font-size: 30px;&quot;&gt;2&lt;/font&gt;&lt;/b&gt;" style="ellipse;whiteSpace=wrap;html=1;" vertex="1" parent="1">
          <mxGeometry x="370" y="50" width="80" height="70" as="geometry" />
        </mxCell>
        <mxCell id="nU3rQ1yhPtoEmgwCQttI-3" value="&lt;b&gt;&lt;font style=&quot;font-size: 30px;&quot;&gt;3&lt;/font&gt;&lt;/b&gt;" style="ellipse;whiteSpace=wrap;html=1;" vertex="1" parent="1">
          <mxGeometry x="560" y="50" width="80" height="70" as="geometry" />
        </mxCell>
      </root>
    </mxGraphModel>
  </diagram>
</mxfile>
